<?xml version="1.0" standalone="no"?> <!DOCTYPE svg PUBLIC "-//W3C//DTD SVG 1.0//EN" "http://www.w3.org/TR/2001/REC-SVG-20010904/DTD/svg10.dtd" > <svg xmlns="http://www.w3.org/2000/svg" width="100%" height="100%">
<defs >
<font horiz-adv-x="485" ><font-face
    font-family=""
    units-per-em="1000"
    panose-1="2 11 5 4 3 2 2 2 2 4"
    ascent="825"
    descent="-175"
    alphabetic="0" />
<missing-glyph horiz-adv-x="154" />
<glyph unicode=" " glyph-name="space" horiz-adv-x="154" />
<glyph unicode="!" glyph-name="exclam" horiz-adv-x="212" d="M155 172H58V692H155V172ZM107 -8Q79 -8 60 11T40 58Q40 86 59 105T107 124Q134 124 153 105T173 58Q173 30 154 11T107 -8Z" />
<glyph unicode="&quot;" glyph-name="quotedbl" horiz-adv-x="295" d="M119 692V462H31V692H119ZM264 692V462H176V692H264Z" />
<glyph unicode="#" glyph-name="numbersign" horiz-adv-x="581" d="M395 187L350 0H262L307 187H191L146 0H58L103 187H17V267H123L168 450H80V530H187L227 692H315L275 530H390L429 692H517L478 530H565V450H458L414 267H502V187H395ZM211 267H326L370 450H256L211 267Z" />
<glyph unicode="$" glyph-name="dollar" horiz-adv-x="483" d="M277 702Q320 696 350 678T398 634T424 576T431 510H349Q347 552 330 581T277 623V399Q291 394 307 387T334 374Q390 345 422 302T455 186Q455 147 443 114T407 55T350 13T277 -9V-68H205V-10Q156
-4 122 15T67 64T37 131T28 207H116Q117 156 137 119T205 70V326Q191 331 175 338T151 351Q100 377 71 418T41 528Q41 561 52 590T85 643T136 682T205 703V762H277V702ZM281 293Q279 293 277 295V70Q315 79 338 107T362 180Q362 202 357 219T341 249T315 272T281
293ZM131 529Q131 491 150 468T205 428V626Q169 618 150 592T131 529Z" />
<glyph unicode="%" glyph-name="percent" horiz-adv-x="780" d="M496 160Q496 120 520 93T587 66Q631 66 654 93T677 160Q677 201 653 228T585 255Q543 255 520 228T496 160ZM417 160Q417 195 429 225T463 277T516 313T584 326Q623 326 654 314T708 279T743 226T756
160Q756 125 744 95T709 43T655 7T586 -6Q548 -6 517 6T464 41T429 94T417 160ZM173 0H87L612 691H698L173 0ZM103 533Q103 492 127 465T194 438Q239 438 262 465T285 533Q285 574 261 600T192 627Q150 627 127 600T103 533ZM24 532Q24 567 36 597T71 650T123 686T191
699Q230 699 261 686T315 651T350 598T363 532Q363 497 351 467T317 415T263 380T193 367Q155 367 124 379T71 414T37 466T24 532Z" />
<glyph unicode="&amp;" glyph-name="ampersand" horiz-adv-x="639" d="M471 57Q436 26 390 8T281 -10Q222 -10 176 5T97 49T48 114T30 197Q30 260 60 308T144 384Q112 407 93 442T74 523Q74 557 86 589T123 647T183 688T266 703Q312 703 348 690T410 652T448 596T462
524Q462 487 450 457T417 404T368 369T308 352L464 191Q483 229 489 276T493 371H583Q587 306 575 242T529 123L648 0H528L471 57ZM283 76Q324 76 355 87T409 120L204 328Q169 310 151 279T132 205Q132 178 143 154T174 113T221 86T283 76ZM167 522Q167 477 196
449T270 421Q315 421 343 449T371 524Q370 568 342 596T267 624Q221 624 194 596T167 522Z" />
<glyph unicode="&apos;" glyph-name="quotesingle" horiz-adv-x="149" d="M119 692V462H31V692H119Z" />
<glyph unicode="(" glyph-name="parenleft" horiz-adv-x="248" d="M51 610Q51 694 89 734T213 775H234V693H216Q192 693 178 687T155 670T144 643T141 608V-8Q141 -27 143 -42T154 -69T177 -87T216 -93H234V-175H213Q128 -175 90 -135T51 -10V610Z" />
<glyph unicode=")" glyph-name="parenright" horiz-adv-x="248" d="M197 -10Q197 -94 159 -134T35 -175H14V-93H32Q56 -93 70 -87T93 -70T103 -43T106 -8V608Q106 627 104 642T93 669T71 687T32 693H14V775H35Q120 775 158 735T197 610V-10Z" />
<glyph unicode="*" glyph-name="asterisk" horiz-adv-x="392" d="M65 636L162 578V692H230V577L327 636L360 579L261 521L360 464L327 406L230 464V350H162V464L65 406L32 463L131 520L31 578L65 636Z" />
<glyph unicode="+" glyph-name="plus" horiz-adv-x="462" d="M24 377H188V546H275V377H439V297H275V127H188V297H24V377Z" />
<glyph unicode="," glyph-name="comma" horiz-adv-x="183" d="M74 -4Q51 2 38 19T25 59Q24 88 43 106T92 125Q121 125 139 106T157 58Q157 41 152 26T139 -8L95 -109H26L74 -4Z" />
<glyph unicode="-" glyph-name="hyphen" horiz-adv-x="282" d="M36 331H247V241H36V331Z" />
<glyph unicode="." glyph-name="period" horiz-adv-x="183" d="M91 -9Q63 -9 44 10T25 58Q25 87 43 106T91 125Q120 125 139 106T158 58Q158 29 139 10T91 -9Z" />
<glyph unicode="/" glyph-name="slash" horiz-adv-x="453" d="M93 -175H4L360 731H449L93 -175Z" />
<glyph unicode="0" glyph-name="zero" horiz-adv-x="517" d="M373 485Q373 542 345 578T259 615Q199 615 172 579T145 485V206Q145 149 172 114T259 78Q316 78 344 114T373 206V485ZM471 208Q471 158 457 118T415 48T348 3T258 -13Q149 -13 98 47T46 208V485Q46
585 99 645T259 706Q310 706 349 690T416 645T457 575T471 485V208Z" />
<glyph unicode="1" glyph-name="one" horiz-adv-x="232" d="M180 0H82V592L13 565V658L89 692H180V0Z" />
<glyph unicode="2" glyph-name="two" horiz-adv-x="468" d="M29 0V88L262 349Q297 388 315 423T334 502Q334 552 308 583T230 615Q198 615 179 604T148 576T133 539T128 499H31Q31 535 40 571T73 638T134 687T230 706Q281 706 319 691T384 648T423 585T436 506Q436
441 411 393T339 296L153 89H444V0H29Z" />
<glyph unicode="3" glyph-name="three" horiz-adv-x="476" d="M147 397L307 603H44V692H422V604L261 405Q300 402 335 390T396 352T437 290T453 201Q453 154 437 115T391 48T322 3T235 -13Q175 -13 134 5T68 52T31 118T19 194H117Q118 142 147 110T234 77Q291
77 322 111T353 200Q353 257 319 289T222 321H147V397Z" />
<glyph unicode="4" glyph-name="four" horiz-adv-x="504" d="M409 219V0H313V219H12V303L313 692H409V306H490V219H409ZM117 306H313V559L117 306Z" />
<glyph unicode="5" glyph-name="five" d="M132 194Q135 143 160 111T244 78Q301 78 329 113T358 209V234Q358 291 332 326T247 361Q225 361 208 356T179 344T159 327T146 307H50V692H417V603H145V411Q161 428 191 440T263 452Q362 452 408 395T455 235V210Q455
163 442 122T402 51T336 4T244 -13Q188 -13 149 3T84 47T48 112T35 194H132Z" />
<glyph unicode="6" glyph-name="six" horiz-adv-x="503" d="M383 559Q366 582 339 598T269 615Q234 615 211 605T172 576T151 531T144 475V405Q158 425 191 443T274 461Q374 461 422 405T470 244V207Q470 160 456 120T415 50T349 4T258 -13Q204 -13 164 2T98 47T59
116T46 207V473Q46 521 58 563T98 637T166 687T266 706Q305 706 335 698T388 677T426 648T451 617L383 559ZM260 370Q202 370 174 337T144 250V206Q144 149 171 114T258 78Q316 78 344 114T373 206V245Q373 302 347 336T260 370Z" />
<glyph unicode="7" glyph-name="seven" horiz-adv-x="446" d="M179 0H72L310 603H15V692H421V620L179 0Z" />
<glyph unicode="8" glyph-name="eight" horiz-adv-x="490" d="M136 510Q136 462 166 431T245 400Q294 400 324 431T354 510Q354 558 324 588T245 619Q195 619 166 589T136 510ZM37 513Q37 552 50 587T90 648T156 690T245 706Q295 706 333 691T398 649T438 588T452
513Q452 459 428 421T368 360Q413 337 439 295T465 191Q465 149 450 112T406 48T336 4T244 -13Q191 -13 151 3T82 46T39 111T24 191Q24 252 50 294T119 359Q84 382 61 420T37 513ZM125 194Q125 142 157 108T244 74Q298 74 331 107T365 194Q365 248 332 281T244
315Q187 315 156 281T125 194Z" />
<glyph unicode="9" glyph-name="nine" horiz-adv-x="503" d="M120 134Q138 111 164 95T237 78Q305 78 332 117T359 218V287Q344 265 312 249T235 232Q133 232 83 288T33 449V486Q33 533 47 573T87 643T153 689T244 706Q352 706 404 647T457 487V220Q457 170 445
128T406 54T339 5T239 -13Q200 -13 170 -5T118 15T80 44T53 76L120 134ZM246 323Q303 323 330 356T360 443V487Q360 545 332 580T244 615Q186 615 159 579T131 487V447Q131 390 158 357T246 323Z" />
<glyph unicode=":" glyph-name="colon" horiz-adv-x="183" d="M91 341Q63 341 44 360T25 408Q25 437 43 456T91 475Q120 475 139 456T158 408Q158 379 139 360T91 341ZM91 -9Q63 -9 44 10T25 58Q25 87 43 106T91 125Q120 125 139 106T158 58Q158 29 139 10T91 -9Z" />
<glyph unicode=";" glyph-name="semicolon" horiz-adv-x="183" d="M74 -4Q51 2 38 19T25 59Q24 88 43 106T92 125Q121 125 139 106T157 58Q157 41 152 26T139 -8L95 -109H26L74 -4ZM91 340Q63 340 44 359T25 407Q25 436 43 455T91 474Q120 474 139 455T158 407Q158
378 139 359T91 340Z" />
<glyph unicode="&lt;" glyph-name="less" horiz-adv-x="413" d="M25 380L387 545V459L116 339L387 216V131L25 295V380Z" />
<glyph unicode="=" glyph-name="equal" horiz-adv-x="474" d="M29 449H444V372H29V449ZM29 292H444V215H29V292Z" />
<glyph unicode="&gt;" glyph-name="greater" horiz-adv-x="409" d="M385 295L26 131V216L293 339L26 459V545L385 380V295Z" />
<glyph unicode="?" glyph-name="question" horiz-adv-x="462" d="M265 172H170V396H223Q274 396 307 423T341 506Q341 557 311 588T230 619Q195 619 173 606T139 574T123 533T119 494H24Q23 519 30 555T59 624T122 680T230 703Q280 703 319 688T384 646T425 584T439
507Q439 468 427 436T391 379T336 341T265 324V172ZM218 -8Q190 -8 171 11T151 58Q151 86 170 105T218 124Q245 124 264 105T284 58Q284 30 265 11T218 -8Z" />
<glyph unicode="@" glyph-name="at" horiz-adv-x="955" d="M622 145Q613 132 598 119T564 96T520 79T467 72Q419 72 380 87T313 131T270 198T254 283Q254 328 269 367T313 435T379 480T463 497Q509 497 544 482T597 444V490H684V223Q684 188 698 168T747 148Q789
148 817 198T845 336Q845 412 820 472T748 575T634 639T485 662Q398 662 329 632T212 551T139 432T114 286Q114 201 142 132T223 15T348 -60T509 -86Q592 -86 657 -59T771 10L817 -46Q795 -68 764 -89T692 -126T606 -152T507 -162Q394 -162 305 -128T153 -34T59
107T26 284Q26 382 60 465T155 608T301 703T488 737Q593 737 675 706T813 622T899 496T929 340Q929 275 915 226T875 142T814 91T738 73Q687 73 660 94T622 145ZM345 284Q345 227 379 191T468 154Q495 154 519 163T560 189T587 230T597 284Q597 314 587 338T560
379T518 406T467 415Q412 415 379 379T345 284Z" />
<glyph unicode="A" glyph-name="A" horiz-adv-x="631" d="M441 228H181L95 0H-2L258 692H361L633 0H530L441 228ZM212 312H408L309 567L212 312Z" />
<glyph unicode="B" glyph-name="B" horiz-adv-x="478" d="M452 200Q452 153 437 116T394 53T328 14T244 0H54V692H232Q329 692 381 646T433 510Q433 460 412 423T354 365Q400 345 426 305T452 200ZM151 315V86H233Q291 86 320 118T350 203Q350 254 321 284T233
315H151ZM151 606V398H227Q278 398 305 425T332 503Q332 553 306 579T227 606H151Z" />
<glyph unicode="C" glyph-name="C" horiz-adv-x="624" d="M611 78Q594 61 571 45T520 16T457 -5T383 -13Q303 -13 237 14T124 88T52 202T26 346Q26 424 52 490T125 604T237 679T381 706Q449 706 505 685T604 626L546 554Q516 580 474 597T381 615Q323 615 277
595T197 539T147 454T129 346Q129 287 147 238T200 154T281 98T384 78Q443 78 485 100T554 146L611 78Z" />
<glyph unicode="D" glyph-name="D" horiz-adv-x="550" d="M152 88H173Q292 87 356 155T421 346Q421 468 357 536T173 604H152V88ZM169 692Q253 692 318 668T430 598T500 490T524 347Q524 269 500 205T430 96T318 25T169 0H54V692H169Z" />
<glyph unicode="E" glyph-name="E" horiz-adv-x="393" d="M54 0V692H355V601H152V401H350V311H152V91H358V0H54Z" />
<glyph unicode="F" glyph-name="F" horiz-adv-x="390" d="M152 311V0H54V692H357V601H152V401H351V311H152Z" />
<glyph unicode="G" glyph-name="G" horiz-adv-x="716" d="M668 0H572V51Q543 26 494 7T379 -13Q302 -13 237 13T125 86T52 200T26 346Q26 423 52 489T125 603T237 678T380 706Q432 706 474 696T550 668T607 629T648 584L575 524Q561 540 543 556T501 586T447 607T379
615Q324 615 278 595T199 540T148 455T129 346Q129 286 148 237T200 152T280 98T383 78Q446 78 493 98T571 150V272H445V356H668V0Z" />
<glyph unicode="H" glyph-name="H" horiz-adv-x="635" d="M581 0H483V312H152V0H54V692H152V405H483V692H581V0Z" />
<glyph unicode="I" glyph-name="I" horiz-adv-x="206" d="M152 0H54V692H152V0Z" />
<glyph unicode="J" glyph-name="J" horiz-adv-x="262" d="M209 142Q209 109 203 83T181 38T138 9T67 -1Q53 -1 39 -1T19 0V89H58Q91 89 101 106T111 150V692H209V142Z" />
<glyph unicode="K" glyph-name="K" horiz-adv-x="525" d="M152 393L403 692H520L238 362L529 0H412L152 316V0H54V692H152V393Z" />
<glyph unicode="L" glyph-name="L" horiz-adv-x="374" d="M54 0V692H152V91H353V0H54Z" />
<glyph unicode="M" glyph-name="M" horiz-adv-x="847" d="M470 0H375L146 563V0H54V692H196L425 118L654 692H793V0H697V563L470 0Z" />
<glyph unicode="N" glyph-name="N" horiz-adv-x="657" d="M150 525V0H54V692H155L507 161V692H603V0H504L150 525Z" />
<glyph unicode="O" glyph-name="O" horiz-adv-x="761" d="M26 346Q26 424 52 490T126 604T237 679T379 706Q458 706 523 679T636 604T709 490T735 347Q735 270 709 204T636 90T524 15T380 -13Q302 -13 237 13T125 88T52 202T26 346ZM129 346Q129 287 147 238T199
154T278 98T380 78Q437 78 483 98T563 153T614 238T632 346Q632 404 614 453T562 539T483 595T380 615Q323 615 277 595T198 539T147 454T129 346Z" />
<glyph unicode="P" glyph-name="P" horiz-adv-x="456" d="M436 504Q436 458 421 422T380 361T316 323T233 310H152V0H54V692H233Q330 692 383 645T436 504ZM152 606V396H228Q281 396 307 425T334 503Q334 551 308 578T228 606H152Z" />
<glyph unicode="Q" glyph-name="Q" horiz-adv-x="761" d="M26 346Q26 424 52 490T126 604T237 679T379 706Q458 706 523 679T636 604T709 490T735 347Q735 279 715 221T656 115L716 61L653 -10L587 50Q544 20 492 4T380 -13Q302 -13 237 13T125 88T52 202T26 346ZM128
346Q128 287 146 238T198 153T277 97T380 77Q458 77 517 114L452 173L514 243L585 179Q633 247 633 346Q633 405 615 454T563 540T484 596T380 616Q323 616 277 596T197 540T146 455T128 346Z" />
<glyph unicode="R" glyph-name="R" horiz-adv-x="495" d="M436 504Q436 440 408 396T328 331L502 0H397L234 313H152V0H54V692H233Q330 692 383 645T436 504ZM152 606V396H228Q281 396 307 425T334 503Q334 551 308 578T228 606H152Z" />
<glyph unicode="S" glyph-name="S" horiz-adv-x="482" d="M141 527Q141 492 158 470T208 431Q239 417 271 405T336 375Q392 348 423 304T454 191Q454 146 439 109T396 45T329 3T241 -12Q181 -12 140 6T73 54T38 124T28 207H123Q123 179 129 155T150 112T186 84T241
73Q290 73 322 100T354 182Q354 224 334 248T280 290Q246 308 212 320T142 352Q95 378 70 420T44 524Q44 562 57 595T96 652T158 691T239 705Q294 705 331 689T392 645T424 583T433 510H343Q341 558 316 589T239 621Q191 621 166 595T141 527Z" />
<glyph unicode="T" glyph-name="T" horiz-adv-x="416" d="M257 601V0H159V601H17V692H399V601H257Z" />
<glyph unicode="U" glyph-name="U" horiz-adv-x="624" d="M312 -13Q245 -13 196 6T115 62T66 148T50 261V692H148V261Q148 178 187 128T313 78Q394 78 435 129T477 262V692H574V261Q574 201 557 151T506 65T424 8T312 -13Z" />
<glyph unicode="V" glyph-name="V" horiz-adv-x="641" d="M-1 692H109L323 122L538 692H642L373 0H268L-1 692Z" />
<glyph unicode="W" glyph-name="W" horiz-adv-x="981" d="M492 547L322 0H215L1 692H107L273 134L441 692H547L715 134L880 692H980L769 0H661L492 547Z" />
<glyph unicode="X" glyph-name="X" horiz-adv-x="614" d="M248 360L14 692H134L309 443L482 692H598L366 359L615 0H502L305 277L109 0H-1L248 360Z" />
<glyph unicode="Y" glyph-name="Y" horiz-adv-x="481" d="M-4 692H106L243 451L380 692H485L289 356V0H191V355L-4 692Z" />
<glyph unicode="Z" glyph-name="Z" horiz-adv-x="588" d="M28 0V73L424 602H34V692H559V619L159 90H560V0H28Z" />
<glyph unicode="[" glyph-name="bracketleft" horiz-adv-x="248" d="M51 775H234V692H141V-92H233V-175H51V775Z" />
<glyph unicode="\" glyph-name="backslash" horiz-adv-x="453" d="M4 731H93L449 -175H360L4 731Z" />
<glyph unicode="]" glyph-name="bracketright" horiz-adv-x="248" d="M197 -175H14V-92H106V692H14V775H197V-175Z" />
<glyph unicode="^" glyph-name="asciicircum" horiz-adv-x="452" d="M440 385H343L226 602L109 385H12L178 692H275L440 385Z" />
<glyph unicode="_" glyph-name="underscore" horiz-adv-x="625" d="M33 -45H592V-123H33V-45Z" />
<glyph unicode="`" glyph-name="grave" horiz-adv-x="476" d="M216 714L292 579H201L122 714H216Z" />
<glyph unicode="a" glyph-name="a" horiz-adv-x="459" d="M26 171Q26 209 39 241T76 297T133 334T207 347Q248 347 276 336T318 311V356Q318 408 295 436T223 464Q174 464 155 438T134 379H45Q45 414 56 444T90 495T145 529T224 541Q275 541 310 527T368 488T401
426T412 345V0H328V42Q309 20 280 6T207 -8Q169 -8 136 4T79 40T40 96T26 171ZM118 171Q118 128 145 99T218 70Q262 70 291 99T320 171Q320 215 291 243T217 271Q172 271 145 243T118 171Z" />
<glyph unicode="b" glyph-name="b" horiz-adv-x="621" d="M140 267Q140 225 153 190T190 130T247 90T321 76Q361 76 394 90T451 129T488 190T501 267Q501 309 488 344T451 404T394 444T321 459Q280 459 247 445T190 405T153 344T140 267ZM140 0H49V731H144V461Q156
476 173 491T214 517T267 536T329 544Q389 544 438 524T522 468T577 381T597 268Q597 209 578 158T523 70T437 12T324 -9Q289 -9 260 -1T208 19T167 45T140 72V0Z" />
<glyph unicode="c" glyph-name="c" horiz-adv-x="509" d="M299 77Q326 77 347 83T386 98T416 117T440 138L496 79Q484 65 466 50T424 21T368 0T298 -9Q236 -9 186 12T99 70T44 157T24 267Q24 326 44 376T101 464T188 523T297 544Q336 544 368 536T424 516T467
488T496 458L437 398Q416 421 383 439T298 458Q258 458 226 444T170 404T134 343T121 267Q121 224 134 189T172 129T228 91T299 77Z" />
<glyph unicode="d" glyph-name="d" horiz-adv-x="621" d="M482 79Q471 64 454 48T414 20T361 -1T297 -9Q237 -9 187 11T100 67T44 154T24 267Q24 326 44 376T100 464T186 523T295 544Q359 544 405 521T477 467V731H572V0H482V79ZM120 267Q120 225 133 190T171
130T228 90T300 76Q340 76 373 90T431 129T468 190T481 267Q481 309 468 344T430 404T373 444T300 459Q260 459 227 445T170 405T133 344T120 267Z" />
<glyph unicode="e" glyph-name="e" horiz-adv-x="566" d="M122 239Q127 163 173 120T295 76Q359 76 397 105T462 182L535 144Q522 113 501 86T449 37T381 4T295 -9Q235 -9 185 10T99 66T44 152T24 266Q24 327 43 378T97 466T180 523T285 544Q344 544 392 526T474
473T527 391T547 282Q547 274 547 263T545 239H122ZM284 462Q218 462 176 423T125 316H448Q443 382 399 422T284 462Z" />
<glyph unicode="f" glyph-name="f" horiz-adv-x="266" d="M160 535H252V454H160V0H65V454H11V535H65V569Q65 606 73 636T99 687T146 719T219 731H254V650H228Q207 650 194 644T173 626T163 601T160 569V535Z" />
<glyph unicode="g" glyph-name="g" horiz-adv-x="620" d="M480 535H572V91Q572 16 551 -36T491 -121T402 -168T292 -183Q223 -183 169 -165T83 -125L120 -50Q146 -67 190 -83T293 -100Q330 -100 363 -91T422 -63T462 -13T477 61V76Q468 62 453 47T415 20T363 -1T298
-9Q238 -9 188 11T101 67T44 154T24 267Q24 326 44 376T101 464T187 523T296 544Q358 544 406 521T480 463V535ZM120 267Q120 225 133 190T171 130T228 90T300 76Q340 76 373 90T431 129T468 190T481 267Q481 309 468 344T430 404T373 444T300 459Q260 459 227
445T170 405T133 344T120 267Z" />
<glyph unicode="h" glyph-name="h" horiz-adv-x="479" d="M337 343Q337 397 314 426T242 456Q194 456 169 425T144 340V0H49V731H144V485Q156 503 185 522T265 541Q311 541 342 526T394 486T423 426T432 353V0H337V343Z" />
<glyph unicode="i" glyph-name="i" horiz-adv-x="193" d="M144 0H49V535H144V0ZM96 587Q70 587 52 605T33 650Q33 677 51 695T96 713Q122 713 141 695T160 650Q160 624 141 606T96 587Z" />
<glyph unicode="j" glyph-name="j" horiz-adv-x="193" d="M144 -11Q144 -48 137 -78T111 -130T64 -163T-9 -175H-40V-93H-18Q4 -93 17 -87T37 -69T46 -44T49 -12V535H144V-11ZM96 587Q70 587 52 605T33 650Q33 677 51 695T96 713Q122 713 141 695T160 650Q160
624 141 606T96 587Z" />
<glyph unicode="k" glyph-name="k" horiz-adv-x="463" d="M236 286L463 0H346L144 251V0H49V731H144V309L340 535H455L236 286Z" />
<glyph unicode="l" glyph-name="l" horiz-adv-x="193" d="M144 0H49V731H144V0Z" />
<glyph unicode="m" glyph-name="m" horiz-adv-x="750" d="M423 0H328V343Q328 395 306 425T238 456Q190 456 167 424T144 337V0H49V535H144V487Q150 496 160 505T184 523T218 536T263 541Q316 541 347 521T395 470Q413 499 446 520T532 541Q578 541 611 527T664
487T693 428T703 355V0H608V344Q608 396 586 426T517 456Q471 456 448 425T423 344V0Z" />
<glyph unicode="n" glyph-name="n" horiz-adv-x="479" d="M337 343Q337 397 314 426T242 456Q194 456 169 425T144 340V0H49V535H144V487Q150 495 160 504T185 522T220 535T265 541Q311 541 342 526T394 486T423 426T432 353V0H337V343Z" />
<glyph unicode="o" glyph-name="o" horiz-adv-x="600" d="M120 267Q120 225 133 191T171 131T228 91T300 77Q340 77 373 91T430 130T467 190T480 267Q480 308 467 343T429 403T372 443T300 458Q260 458 227 444T170 405T133 344T120 267ZM24 267Q24 328 45 378T103
466T190 523T300 544Q360 544 411 524T498 466T555 379T576 268Q576 208 555 157T497 70T409 12T299 -9Q239 -9 189 11T102 67T45 155T24 267Z" />
<glyph unicode="p" glyph-name="p" horiz-adv-x="621" d="M140 267Q140 225 153 190T190 130T247 90T321 76Q361 76 394 90T451 129T488 190T501 267Q501 309 488 344T451 404T394 444T321 459Q280 459 247 445T190 405T153 344T140 267ZM144 -175H49V535H140V458Q152
474 169 489T210 517T263 536T328 544Q388 544 437 524T522 468T577 380T597 268Q597 209 578 159T524 71T438 13T324 -9Q289 -9 260 -2T209 17T170 41T144 66V-175Z" />
<glyph unicode="q" glyph-name="q" horiz-adv-x="621" d="M477 73Q468 59 452 45T412 18T360 -1T297 -9Q237 -9 187 11T100 67T44 154T24 267Q24 327 44 377T100 465T187 523T297 544Q357 544 406 521T481 462V535H572V-175H477V73ZM120 267Q120 225 133 190T170
130T227 90T301 76Q341 76 374 90T431 129T468 190T481 267Q481 309 468 344T430 404T373 444T300 459Q260 459 227 445T170 405T133 344T120 267Z" />
<glyph unicode="r" glyph-name="r" horiz-adv-x="281" d="M263 439H237Q188 439 166 412T144 336V0H49V535H144V483Q158 506 186 521T263 536V439Z" />
<glyph unicode="s" glyph-name="s" horiz-adv-x="399" d="M124 401Q124 352 178 333Q199 325 220 320T263 307Q319 287 349 253T379 153Q379 114 365 84T326 34T268 4T198 -6Q147 -6 113 8T57 46T27 101T19 168H111Q111 148 115 131T130 100T157 79T200 71Q235
70 260 89T286 144Q286 177 270 194T224 222Q201 230 178 236T129 253Q76 276 54 311T32 395Q32 428 44 455T79 501T132 530T200 541Q284 541 324 497T366 379H278Q276 420 257 443T198 467Q164 467 144 450T124 401Z" />
<glyph unicode="t" glyph-name="t" horiz-adv-x="277" d="M160 535H259V454H160V153Q160 118 171 100T220 82H258V0Q252 0 236 -2T196 -5Q122 -5 94 30T65 129V454H11V535H65V617H160V535Z" />
<glyph unicode="u" glyph-name="u" horiz-adv-x="475" d="M141 193Q141 139 163 110T234 80Q282 80 306 111T331 196V535H427V0H332V49Q320 30 291 12T212 -6Q167 -6 136 8T84 48T55 108T46 182V535H141V193Z" />
<glyph unicode="v" glyph-name="v" horiz-adv-x="511" d="M259 115L414 535H513L309 0H205L-2 535H103L259 115Z" />
<glyph unicode="w" glyph-name="w" horiz-adv-x="830" d="M601 120L732 535H830L656 0H551L417 402L282 0H177L0 535H105L235 120L367 535H470L601 120Z" />
<glyph unicode="x" glyph-name="x" horiz-adv-x="519" d="M258 201L105 0H-1L205 275L11 535H124L262 352L400 535H508L314 277L520 0H411L258 201Z" />
<glyph unicode="y" glyph-name="y" horiz-adv-x="512" d="M143 -175L214 10L-2 535H103L263 137L415 535H514L236 -175H143Z" />
<glyph unicode="z" glyph-name="z" horiz-adv-x="441" d="M133 80H418V0H23V73L302 455H29V535H418V462L133 80Z" />
<glyph unicode="{" glyph-name="braceleft" horiz-adv-x="279" d="M172 -8Q172 -27 174 -42T185 -69T208 -86T247 -92H265V-175H244Q159 -175 121 -135T82 -10V191Q82 223 73 240T25 258H21V344H25Q63 344 72 361T82 411V610Q82 694 120 734T244 775H265V692H247Q223
692 209 686T186 669T175 643T172 608V404Q172 352 157 330T117 301Q142 294 157 272T172 197V-8V-8Z" />
<glyph unicode="|" glyph-name="bar" horiz-adv-x="225" d="M154 -175H71V731H154V-175Z" />
<glyph unicode="}" glyph-name="braceright" horiz-adv-x="279" d="M106 197Q106 250 121 272T162 301Q136 308 121 330T106 404V608Q106 627 104 642T93 669T71 686T32 692H14V775H35Q120 775 158 735T197 610V411Q197 379 206 362T254 344H258V258H254Q216 258
207 241T197 191V-10Q197 -94 159 -134T35 -175H14V-92H32Q56 -92 70 -86T93 -69T103 -43T106 -8V197Z" />
<glyph unicode="~" glyph-name="asciitilde" horiz-adv-x="474" d="M228 260Q207 274 191 283T155 292Q126 292 115 272T101 229H20Q20 258 28 285T52 334T92 367T151 380Q178 380 199 372T247 347Q267 333 284 324T321 315Q350 315 360 335T373 379H454Q454 349
446 322T423 273T383 240T325 227Q298 227 276 235T228 260Z" />
<glyph unicode="&#xa0;" glyph-name="uni00A0" horiz-adv-x="154" />
<glyph unicode="&#xa1;" glyph-name="exclamdown" horiz-adv-x="212" d="M155 -103H58V420H155V-103ZM106 599Q134 599 153 580T173 532Q173 504 154 485T106 466Q78 466 59 485T40 532Q40 560 59 579T106 599Z" />
<glyph unicode="&#xa2;" glyph-name="cent" horiz-adv-x="511" d="M326 540Q359 537 386 529T434 508T470 483T496 456L439 396Q420 417 392 434T326 456V79Q366 84 394 100T443 140L497 81Q486 68 470 54T433 28T384 7T326 -5V-68H256V-4Q203 3 160 26T87 84T41
166T24 267Q24 320 41 366T89 449T162 508T256 539V604H326V540ZM119 267Q119 231 129 200T158 145T201 105T256 82V454Q193 440 156 390T119 267Z" />
<glyph unicode="&#xa3;" glyph-name="sterling" horiz-adv-x="525" d="M191 379H335V294H191V88H497V0H24V88H93V294H24V379H93V502Q93 546 106 583T144 648T207 690T295 706Q352 706 391 687T453 639T487 572T496 499H399Q399 518 395 538T379 576T347 604T295
615Q241 615 216 582T191 497V379Z" />
<glyph unicode="&#xa5;" glyph-name="yen" horiz-adv-x="492" d="M188 412L4 692H117L249 490L380 692H486L301 412H445V339H294V253H445V180H294V0H196V180H45V253H196V339H45V412H188Z" />
<glyph unicode="&#xa6;" glyph-name="brokenbar" horiz-adv-x="225" d="M154 -175H71V255H154V-175ZM154 312H71V731H154V312Z" />
<glyph unicode="&#xa7;" glyph-name="section" horiz-adv-x="568" d="M378 -7Q378 26 359 50T292 92L160 140Q98 163 64 201T30 304Q30 361 60 396T139 443Q116 468 106 498T96 561Q96 596 108 628T145 684T205 722T290 737Q347 737 384 719T442 673T472 609T479
541H385Q385 558 381 577T365 612T336 640T290 651Q238 651 216 626T193 565Q193 533 212 508T276 468L403 422Q473 399 505 359T537 256Q537 227 528 204T505 162T472 133T434 115Q457 92 466 60T476 -4Q476 -40 463 -72T424 -129T361 -167T276 -182Q222 -182
185 -166T124 -123T91 -59T82 18H178Q178 -4 183 -24T199 -61T230 -86T277 -96Q327 -96 352 -72T378 -7ZM250 374Q222 384 200 383T161 373T135 347T126 311Q126 277 145 259T194 230L326 183Q347 175 367 176T404 185T431 209T441 248Q441 283 422 300T373 329L250
374Z" />
<glyph unicode="&#xa8;" glyph-name="dieresis" horiz-adv-x="476" d="M158 590Q133 590 116 607T99 649Q99 674 116 691T158 708Q184 708 201 691T219 649Q219 624 201 607T158 590ZM329 590Q303 590 286 607T269 649Q269 674 286 691T329 708Q354 708 371 691T389
649Q389 624 371 607T329 590Z" />
<glyph unicode="&#xa9;" glyph-name="copyright" horiz-adv-x="778" d="M26 346Q26 421 52 487T126 601T239 678T385 706Q469 706 537 679T653 603T726 490T752 349Q752 273 727 207T654 92T540 15T390 -13Q307 -13 240 14T126 90T52 204T26 346ZM97 346Q97 283
117 229T176 135T268 72T390 49Q458 49 512 71T603 133T661 228T681 348Q681 412 661 466T603 560T509 621T385 643Q320 643 267 621T176 559T118 465T97 346ZM486 436Q475 447 454 457T401 468Q348 468 319 433T289 346Q289 295 319 260T404 225Q430 225 452 234T488
256L533 202Q509 176 476 164T404 151Q358 151 321 166T259 207T220 269T206 346Q206 387 220 423T260 485T322 527T402 542Q446 542 478 530T533 497L486 436Z" />
<glyph unicode="&#xaa;" glyph-name="ordfeminine" horiz-adv-x="352" d="M25 417Q25 475 62 511T161 548Q192 548 210 541T240 524V558Q240 593 225 613T175 634Q140 634 127 617T113 576H40Q40 629 73 663T175 698Q251 698 283 658T316 551V289H248V314Q234
300 213 292T162 283Q103 283 65 318T25 417ZM100 417Q100 386 119 367T170 347Q201 347 221 366T241 417Q241 449 221 468T170 488Q138 488 119 469T100 417Z" />
<glyph unicode="&#xab;" glyph-name="guillemotleft" horiz-adv-x="348" d="M99 105L16 268L99 432H184L100 268L183 105H99ZM247 105L164 268L247 432H332L248 268L331 105H247Z" />
<glyph unicode="&#xae;" glyph-name="registered" horiz-adv-x="450" d="M206 517V429H156V649H232Q269 649 287 632T306 583Q306 563 297 549T275 528L315 429H263L227 517H206ZM206 605V559H231Q254 559 254 583Q254 605 231 605H206ZM20 535Q20 577 34 614T75
678T139 722T223 738Q271 738 309 723T375 680T416 615T431 536Q431 494 417 458T375 393T310 349T225 333Q178 333 140 348T76 391T35 455T20 535ZM67 535Q67 501 78 472T109 422T158 388T225 376Q262 376 291 388T341 421T372 471T383 536Q383 607 341 651T223
695Q187 695 158 683T109 650T78 600T67 535Z" />
<glyph unicode="&#xaf;" glyph-name="macron" horiz-adv-x="400" d="M85 670H315V597H85V670Z" />
<glyph unicode="&#xb0;" glyph-name="degree" horiz-adv-x="349" d="M22 552Q22 583 33 611T64 659T112 691T174 703Q209 703 237 692T286 660T316 612T327 554Q327 522 316 495T286 447T238 415T175 403Q140 403 112 414T63 446T33 494T22 552ZM94 552Q94 517
115 493T175 469Q213 469 234 493T255 553Q255 589 234 613T174 637Q137 637 116 613T94 552Z" />
<glyph unicode="&#xb2;" glyph-name="twosuperior" horiz-adv-x="306" d="M31 335V394L156 512Q176 531 186 546T197 582Q197 602 186 615T152 628Q124 628 115 612T107 579H33Q32 598 37 619T56 657T93 686T152 698Q212 698 243 667T275 586Q275 551 260 528T218
479L141 402H279V335H31Z" />
<glyph unicode="&#xb3;" glyph-name="threesuperior" horiz-adv-x="311" d="M99 549L175 627H45V692H263V629L186 552Q203 550 220 544T250 524T271 492T279 448Q279 395 244 362T151 329Q118 329 95 338T56 364T33 401T25 447H100Q100 422 113 408T152 394Q175
394 188 407T202 446Q202 471 187 483T145 496H99V549Z" />
<glyph unicode="&#xb4;" glyph-name="acute" horiz-adv-x="476" d="M370 714L290 579H198L276 714H370Z" />
<glyph unicode="&#xb6;" glyph-name="paragraph" horiz-adv-x="441" d="M164 0V418Q134 419 108 429T63 457T32 500T21 556Q21 619 62 655T172 692H243V0H164ZM387 0H309V692H387V0Z" />
<glyph unicode="&#xb7;" glyph-name="periodcentered" horiz-adv-x="190" d="M94 261Q66 261 47 280T28 328Q28 357 46 376T94 395Q123 395 142 376T161 328Q161 299 142 280T94 261Z" />
<glyph unicode="&#xb8;" glyph-name="cedilla" horiz-adv-x="400" d="M129 -252V-191H150Q173 -191 189 -180T205 -143Q205 -118 191 -107T150 -95H129V17H189V-39Q235 -48 255 -76T275 -143Q275 -197 240 -224T149 -252H129Z" />
<glyph unicode="&#xb9;" glyph-name="onesuperior" horiz-adv-x="181" d="M133 335H57V623L16 606V671L63 692H133V335Z" />
<glyph unicode="&#xba;" glyph-name="ordmasculine" horiz-adv-x="446" d="M95 491Q95 431 131 394T223 357Q280 357 315 394T350 491Q350 520 341 545T314 588T274 616T223 626Q194 626 171 616T131 588T105 546T95 491ZM16 491Q16 537 32 575T75 640T141 683T223
698Q268 698 306 683T371 640T413 575T429 492Q429 447 414 409T370 344T305 301T223 285Q178 285 140 300T75 342T32 407T16 491Z" />
<glyph unicode="&#xbb;" glyph-name="guillemotright" horiz-adv-x="348" d="M100 432L184 269L100 105H16L100 269L16 432H100ZM248 432L332 269L248 105H164L248 269L164 432H248Z" />
<glyph unicode="&#xbc;" glyph-name="onequarter" horiz-adv-x="651" d="M168 335H93V624L52 607V671L99 692H168V335ZM574 94V1H501V94H338V157L500 359H574V160H615V94H574ZM413 160H501V271L413 160ZM344 0H262L778 692H860L344 0Z" />
<glyph unicode="&#xbd;" glyph-name="onehalf" horiz-adv-x="674" d="M168 335H93V624L52 607V671L99 692H168V335ZM390 1V59L516 179Q536 198 546 214T556 250Q556 270 544 284T510 298Q496 298 487 293T473 281T466 264T464 247H391Q390 266 395 287T415 326T452
355T510 367Q570 367 601 335T633 254Q633 219 618 195T576 145L498 67H637V1H390ZM344 0H262L778 692H860L344 0Z" />
<glyph unicode="&#xbe;" glyph-name="threequarters" horiz-adv-x="725" d="M108 547L186 628H55V692H271V630L195 551Q212 549 229 543T259 523T281 491T289 446Q289 392 255 359T161 326Q128 326 105 335T66 361T43 398T35 444H109Q109 419 122 404T162 389Q185
389 199 404T213 444Q213 470 198 483T154 496H108V547ZM648 94V1H575V94H412V157L574 359H648V160H689V94H648ZM487 160H575V271L487 160ZM162 0H80L596 692H678L162 0Z" />
<glyph unicode="&#xbf;" glyph-name="questiondown" horiz-adv-x="462" d="M197 420H292V193H239Q188 193 155 166T121 84Q121 33 151 2T232 -30Q267 -30 289 -17T323 15T339 56T343 96H438Q439 70 432 35T403 -34T339 -90T232 -113Q181 -113 142 -98T77 -57T37
5T23 82Q23 120 35 152T71 209T126 247T197 265V420ZM245 599Q272 599 291 580T311 533Q311 504 292 485T245 466Q217 466 198 485T178 533Q178 561 197 580T245 599Z" />
<glyph unicode="&#xc0;" glyph-name="Agrave" horiz-adv-x="631" d="M276 855L350 729H259L181 855H276ZM441 228H181L95 0H-2L258 692H361L633 0H530L441 228ZM212 312H408L309 567L212 312Z" />
<glyph unicode="&#xc1;" glyph-name="Aacute" horiz-adv-x="631" d="M438 855L360 729H267L342 855H438ZM441 228H181L95 0H-2L258 692H361L633 0H530L441 228ZM212 312H408L309 567L212 312Z" />
<glyph unicode="&#xc2;" glyph-name="Acircumflex" horiz-adv-x="631" d="M357 855L465 729H373L308 797L244 729H151L259 855H357ZM441 228H181L95 0H-2L258 692H361L633 0H530L441 228ZM212 312H408L309 567L212 312Z" />
<glyph unicode="&#xc3;" glyph-name="Atilde" horiz-adv-x="631" d="M369 736Q349 736 334 742T306 757T281 772T254 779Q238 779 230 768T221 737H151Q149 786 175 819T250 853Q270 853 285 847T312 832T337 818T363 811Q394 811 396 853H466Q467 800 441 768T369
736ZM441 228H181L95 0H-2L258 692H361L633 0H530L441 228ZM212 312H408L309 567L212 312Z" />
<glyph unicode="&#xc4;" glyph-name="Adieresis" horiz-adv-x="631" d="M215 736Q190 736 173 752T156 795Q156 820 173 837T215 854Q241 854 258 837T276 795Q276 769 258 753T215 736ZM402 736Q377 736 360 752T343 795Q343 820 360 837T402 854Q428 854 445
837T463 795Q463 769 445 753T402 736ZM441 228H181L95 0H-2L258 692H361L633 0H530L441 228ZM212 312H408L309 567L212 312Z" />
<glyph unicode="&#xc5;" glyph-name="Aring" horiz-adv-x="631" d="M206 817Q206 862 234 890T308 919Q357 919 385 891T413 819Q413 775 385 747T309 718Q263 718 235 746T206 817ZM262 818Q262 797 274 784T309 770Q332 770 344 783T357 819Q357 840 345 853T309
867Q287 867 275 854T262 818ZM441 228H181L95 0H-2L258 692H361L633 0H530L441 228ZM212 312H408L309 567L212 312Z" />
<glyph unicode="&#xc6;" glyph-name="AE" horiz-adv-x="772" d="M432 0V200H216L104 0H-4L389 692H734V601H530V401H728V311H530V91H736V0H432ZM432 285V585L263 285H432Z" />
<glyph unicode="&#xc7;" glyph-name="Ccedilla" horiz-adv-x="624" d="M297 -252V-191H318Q341 -191 357 -180T373 -143Q373 -118 359 -107T318 -95H297V-4Q235 9 185 40T99 117T45 221T26 346Q26 424 52 490T125 604T237 679T381 706Q449 706 505 685T604 626L546
554Q516 580 474 597T381 615Q323 615 277 595T197 539T147 454T129 346Q129 287 147 238T200 154T281 98T384 78Q443 78 485 100T554 146L611 78Q594 61 571 45T520 16T457 -5T383 -13Q376 -13 371 -13T357 -12V-39Q403 -48 423 -76T443 -143Q443 -197 408 -224T317
-252H297Z" />
<glyph unicode="&#xc8;" glyph-name="Egrave" horiz-adv-x="393" d="M190 855L264 729H173L95 855H190ZM54 0V692H355V601H152V401H350V311H152V91H358V0H54Z" />
<glyph unicode="&#xc9;" glyph-name="Eacute" horiz-adv-x="393" d="M319 855L241 729H148L223 855H319ZM54 0V692H355V601H152V401H350V311H152V91H358V0H54Z" />
<glyph unicode="&#xca;" glyph-name="Ecircumflex" horiz-adv-x="393" d="M252 855L360 729H268L203 797L139 729H46L154 855H252ZM54 0V692H355V601H152V401H350V311H152V91H358V0H54Z" />
<glyph unicode="&#xcb;" glyph-name="Edieresis" horiz-adv-x="393" d="M115 736Q90 736 73 752T56 795Q56 820 73 837T115 854Q141 854 158 837T176 795Q176 769 158 753T115 736ZM302 736Q277 736 260 752T243 795Q243 820 260 837T302 854Q328 854 345 837T363
795Q363 769 345 753T302 736ZM54 0V692H355V601H152V401H350V311H152V91H358V0H54Z" />
<glyph unicode="&#xcc;" glyph-name="Igrave" horiz-adv-x="206" d="M75 855L149 729H58L-20 855H75ZM152 0H54V692H152V0Z" />
<glyph unicode="&#xcd;" glyph-name="Iacute" horiz-adv-x="206" d="M229 855L151 729H58L133 855H229ZM152 0H54V692H152V0Z" />
<glyph unicode="&#xce;" glyph-name="Icircumflex" horiz-adv-x="206" d="M151 855L251 729H162L103 798L44 729H-46L54 855H151ZM152 0H54V692H152V0Z" />
<glyph unicode="&#xcf;" glyph-name="Idieresis" horiz-adv-x="206" d="M19 736Q-6 736 -23 752T-40 795Q-40 820 -23 837T19 854Q45 854 62 837T80 795Q80 769 62 753T19 736ZM186 736Q160 736 144 752T127 795Q127 820 143 837T186 854Q211 854 229 837T247
795Q247 769 229 753T186 736ZM152 0H54V692H152V0Z" />
<glyph unicode="&#xd0;" glyph-name="Eth" horiz-adv-x="562" d="M180 692Q264 692 329 668T441 598T511 490T535 347Q535 269 511 205T441 96T329 25T180 0H65V307H9V398H65V692H180ZM163 398H283V307H163V88H184Q303 87 367 155T432 346Q432 468 368 536T184
604H163V398Z" />
<glyph unicode="&#xd1;" glyph-name="Ntilde" horiz-adv-x="657" d="M405 736Q385 736 370 742T342 757T317 772T290 779Q274 779 266 768T257 737H187Q185 786 211 819T286 853Q306 853 321 847T348 832T373 818T399 811Q430 811 432 853H502Q503 800 477 768T405
736ZM150 525V0H54V692H155L507 161V692H603V0H504L150 525Z" />
<glyph unicode="&#xd2;" glyph-name="Ograve" horiz-adv-x="761" d="M351 855L425 729H334L256 855H351ZM26 346Q26 424 52 490T126 604T237 679T379 706Q458 706 523 679T636 604T709 490T735 347Q735 270 709 204T636 90T524 15T380 -13Q302 -13 237 13T125
88T52 202T26 346ZM129 346Q129 287 147 238T199 154T278 98T380 78Q437 78 483 98T563 153T614 238T632 346Q632 404 614 453T562 539T483 595T380 615Q323 615 277 595T198 539T147 454T129 346Z" />
<glyph unicode="&#xd3;" glyph-name="Oacute" horiz-adv-x="761" d="M503 855L425 729H332L407 855H503ZM26 346Q26 424 52 490T126 604T237 679T379 706Q458 706 523 679T636 604T709 490T735 347Q735 270 709 204T636 90T524 15T380 -13Q302 -13 237 13T125
88T52 202T26 346ZM129 346Q129 287 147 238T199 154T278 98T380 78Q437 78 483 98T563 153T614 238T632 346Q632 404 614 453T562 539T483 595T380 615Q323 615 277 595T198 539T147 454T129 346Z" />
<glyph unicode="&#xd4;" glyph-name="Ocircumflex" horiz-adv-x="761" d="M429 855L537 729H445L380 797L316 729H223L331 855H429ZM26 346Q26 424 52 490T126 604T237 679T379 706Q458 706 523 679T636 604T709 490T735 347Q735 270 709 204T636 90T524 15T380
-13Q302 -13 237 13T125 88T52 202T26 346ZM129 346Q129 287 147 238T199 154T278 98T380 78Q437 78 483 98T563 153T614 238T632 346Q632 404 614 453T562 539T483 595T380 615Q323 615 277 595T198 539T147 454T129 346Z" />
<glyph unicode="&#xd5;" glyph-name="Otilde" horiz-adv-x="761" d="M440 736Q420 736 405 742T377 757T352 772T325 779Q309 779 301 768T292 737H222Q220 786 246 819T321 853Q341 853 356 847T383 832T408 818T434 811Q465 811 467 853H537Q538 800 512 768T440
736ZM26 346Q26 424 52 490T126 604T237 679T379 706Q458 706 523 679T636 604T709 490T735 347Q735 270 709 204T636 90T524 15T380 -13Q302 -13 237 13T125 88T52 202T26 346ZM129 346Q129 287 147 238T199 154T278 98T380 78Q437 78 483 98T563 153T614 238T632
346Q632 404 614 453T562 539T483 595T380 615Q323 615 277 595T198 539T147 454T129 346Z" />
<glyph unicode="&#xd6;" glyph-name="Odieresis" horiz-adv-x="761" d="M287 736Q262 736 245 752T228 795Q228 820 245 837T287 854Q313 854 330 837T348 795Q348 769 330 753T287 736ZM474 736Q449 736 432 752T415 795Q415 820 432 837T474 854Q500 854 517
837T535 795Q535 769 517 753T474 736ZM26 346Q26 424 52 490T126 604T237 679T379 706Q458 706 523 679T636 604T709 490T735 347Q735 270 709 204T636 90T524 15T380 -13Q302 -13 237 13T125 88T52 202T26 346ZM129 346Q129 287 147 238T199 154T278 98T380 78Q437
78 483 98T563 153T614 238T632 346Q632 404 614 453T562 539T483 595T380 615Q323 615 277 595T198 539T147 454T129 346Z" />
<glyph unicode="&#xd7;" glyph-name="multiply" horiz-adv-x="406" d="M77 519L203 392L329 518L385 462L259 335L387 207L330 151L202 278L76 152L20 208L146 334L19 461L77 519Z" />
<glyph unicode="&#xd8;" glyph-name="Oslash" horiz-adv-x="761" d="M26 346Q26 424 52 489T126 603T237 678T378 705Q437 705 489 690T581 645L634 706L699 650L647 589Q686 544 710 483T734 347Q734 270 708 205T635 91T522 16T379 -12Q319 -12 268 4T177 48L123
-15L59 40L113 102Q71 149 49 211T26 346ZM633 346Q633 396 620 438T582 516L238 118Q268 98 303 88T380 77Q437 77 483 97T563 152T614 237T633 346ZM128 346Q128 296 141 254T178 177L521 575Q491 595 456 605T379 616Q322 616 276 596T197 540T146 455T128 346Z"
/>
<glyph unicode="&#xd9;" glyph-name="Ugrave" horiz-adv-x="624" d="M296 855L370 729H279L201 855H296ZM312 -13Q245 -13 196 6T115 62T66 148T50 261V692H148V261Q148 178 187 128T313 78Q394 78 435 129T477 262V692H574V261Q574 201 557 151T506 65T424 8T312 -13Z" />
<glyph unicode="&#xda;" glyph-name="Uacute" horiz-adv-x="624" d="M427 855L349 729H256L331 855H427ZM312 -13Q245 -13 196 6T115 62T66 148T50 261V692H148V261Q148 178 187 128T313 78Q394 78 435 129T477 262V692H574V261Q574 201 557 151T506 65T424 8T312 -13Z" />
<glyph unicode="&#xdb;" glyph-name="Ucircumflex" horiz-adv-x="624" d="M362 855L470 729H378L313 797L249 729H156L264 855H362ZM312 -13Q245 -13 196 6T115 62T66 148T50 261V692H148V261Q148 178 187 128T313 78Q394 78 435 129T477 262V692H574V261Q574
201 557 151T506 65T424 8T312 -13Z" />
<glyph unicode="&#xdc;" glyph-name="Udieresis" horiz-adv-x="624" d="M218 736Q193 736 176 752T159 795Q159 820 176 837T218 854Q244 854 261 837T279 795Q279 769 261 753T218 736ZM405 736Q380 736 363 752T346 795Q346 820 363 837T405 854Q431 854 448
837T466 795Q466 769 448 753T405 736ZM312 -13Q245 -13 196 6T115 62T66 148T50 261V692H148V261Q148 178 187 128T313 78Q394 78 435 129T477 262V692H574V261Q574 201 557 151T506 65T424 8T312 -13Z" />
<glyph unicode="&#xdd;" glyph-name="Yacute" horiz-adv-x="481" d="M366 855L288 729H195L270 855H366ZM-4 692H106L243 451L380 692H485L289 356V0H191V355L-4 692Z" />
<glyph unicode="&#xde;" glyph-name="Thorn" horiz-adv-x="460" d="M436 355Q436 262 380 212T233 161H152V0H54V692H152V544H233Q330 544 383 497T436 355ZM152 458V248H228Q281 248 307 276T334 355Q334 403 308 430T228 458H152Z" />
<glyph unicode="&#xdf;" glyph-name="germandbls" horiz-adv-x="506" d="M211 81H223Q254 81 283 90T334 118T370 167T384 238Q384 279 371 309T335 358T283 386T224 395H211V474H226Q268 474 295 499T322 566Q322 608 298 632T232 657Q207 657 190 648T163 625T149
592T144 553V0H49V548Q49 585 58 619T89 680T146 721T234 737Q280 737 314 724T371 689T405 637T416 572Q416 526 396 496T349 450Q376 438 400 420T442 375T470 315T481 239Q481 180 462 136T408 61T327 15T225 0H211V81Z" />
<glyph unicode="&#xe0;" glyph-name="agrave" horiz-adv-x="459" d="M26 171Q26 209 39 241T76 297T133 334T207 347Q248 347 276 336T318 311V356Q318 408 295 436T223 464Q174 464 155 438T134 379H45Q45 414 56 444T90 495T145 529T224 541Q275 541 310 527T368
488T401 426T412 345V0H328V42Q309 20 280 6T207 -8Q169 -8 136 4T79 40T40 96T26 171ZM118 171Q118 128 145 99T218 70Q262 70 291 99T320 171Q320 215 291 243T217 271Q172 271 145 243T118 171ZM452 714L528 579H437L358 714H452Z" />
<glyph unicode="&#xe1;" glyph-name="aacute" horiz-adv-x="459" d="M26 171Q26 209 39 241T76 297T133 334T207 347Q248 347 276 336T318 311V356Q318 408 295 436T223 464Q174 464 155 438T134 379H45Q45 414 56 444T90 495T145 529T224 541Q275 541 310 527T368
488T401 426T412 345V0H328V42Q309 20 280 6T207 -8Q169 -8 136 4T79 40T40 96T26 171ZM118 171Q118 128 145 99T218 70Q262 70 291 99T320 171Q320 215 291 243T217 271Q172 271 145 243T118 171ZM612 714L532 579H440L518 714H612Z" />
<glyph unicode="&#xe2;" glyph-name="acircumflex" horiz-adv-x="459" d="M26 171Q26 209 39 241T76 297T133 334T207 347Q248 347 276 336T318 311V356Q318 408 295 436T223 464Q174 464 155 438T134 379H45Q45 414 56 444T90 495T145 529T224 541Q275 541 310
527T368 488T401 426T412 345V0H328V42Q309 20 280 6T207 -8Q169 -8 136 4T79 40T40 96T26 171ZM118 171Q118 128 145 99T218 70Q262 70 291 99T320 171Q320 215 291 243T217 271Q172 271 145 243T118 171ZM276 715L378 575H291L229 654L167 575H80L181 715H276Z"
/>
<glyph unicode="&#xe3;" glyph-name="atilde" horiz-adv-x="459" d="M26 171Q26 209 39 241T76 297T133 334T207 347Q248 347 276 336T318 311V356Q318 408 295 436T223 464Q174 464 155 438T134 379H45Q45 414 56 444T90 495T145 529T224 541Q275 541 310 527T368
488T401 426T412 345V0H328V42Q309 20 280 6T207 -8Q169 -8 136 4T79 40T40 96T26 171ZM118 171Q118 128 145 99T218 70Q262 70 291 99T320 171Q320 215 291 243T217 271Q172 271 145 243T118 171ZM286 582Q266 582 252 588T224 603T199 618T173 625Q157 625 150
614T142 583H72Q71 632 96 665T169 699Q189 699 204 693T231 678T255 663T281 656Q311 656 311 699H381Q382 646 357 614T286 582Z" />
<glyph unicode="&#xe4;" glyph-name="adieresis" horiz-adv-x="459" d="M26 171Q26 209 39 241T76 297T133 334T207 347Q248 347 276 336T318 311V356Q318 408 295 436T223 464Q174 464 155 438T134 379H45Q45 414 56 444T90 495T145 529T224 541Q275 541 310
527T368 488T401 426T412 345V0H328V42Q309 20 280 6T207 -8Q169 -8 136 4T79 40T40 96T26 171ZM118 171Q118 128 145 99T218 70Q262 70 291 99T320 171Q320 215 291 243T217 271Q172 271 145 243T118 171ZM395 590Q370 590 353 607T336 649Q336 674 353 691T395
708Q421 708 438 691T456 649Q456 624 438 607T395 590ZM566 590Q540 590 523 607T506 649Q506 674 523 691T566 708Q591 708 608 691T626 649Q626 624 608 607T566 590Z" />
<glyph unicode="&#xe5;" glyph-name="aring" horiz-adv-x="459" d="M26 171Q26 209 39 241T76 297T133 334T207 347Q248 347 276 336T318 311V356Q318 408 295 436T223 464Q174 464 155 438T134 379H45Q45 414 56 444T90 495T145 529T224 541Q275 541 310 527T368
488T401 426T412 345V0H328V42Q309 20 280 6T207 -8Q169 -8 136 4T79 40T40 96T26 171ZM118 171Q118 128 145 99T218 70Q262 70 291 99T320 171Q320 215 291 243T217 271Q172 271 145 243T118 171ZM121 662Q121 706 149 734T223 763Q272 763 300 735T328 664Q328
619 300 591T224 562Q178 562 150 590T121 662ZM175 662Q175 641 188 627T224 613Q248 613 261 627T274 664Q274 684 261 698T224 713Q201 713 188 699T175 662Z" />
<glyph unicode="&#xe6;" glyph-name="ae" horiz-adv-x="849" d="M580 -7Q512 -7 459 18T371 89Q364 74 352 57T322 25T277 1T214 -9Q173 -9 139 3T80 39T40 94T26 168Q26 206 39 238T75 293T132 330T207 343Q245 343 273 333T316 308V356Q316 407 294 435T224
464Q200 464 183 457T156 438T142 411T137 379H48Q48 413 59 443T92 494T147 528T225 541Q286 541 324 517T379 450Q408 491 456 516T570 542Q628 542 676 524T757 472T810 390T830 281Q830 274 830 262T828 238H410Q411 203 423 174T458 123T511 89T580 77Q643
77 682 107T744 185L817 146Q804 115 783 88T733 39T666 6T580 -7ZM569 460Q534 460 506 448T458 416T426 369T412 311H730Q727 381 683 420T569 460ZM117 170Q117 126 145 98T218 69Q263 69 292 97T321 170Q321 215 292 243T217 272Q171 272 144 243T117 170Z"
/>
<glyph unicode="&#xe7;" glyph-name="ccedilla" horiz-adv-x="509" d="M224 -252V-191H245Q268 -191 284 -180T300 -143Q300 -118 286 -107T245 -95H224V-1Q178 10 141 34T78 94T37 173T23 267Q23 326 43 376T100 464T187 523T296 544Q335 544 367 536T423 516T466
488T495 458L436 398Q415 421 382 439T297 458Q257 458 225 444T169 404T133 343T120 267Q120 224 133 189T171 129T227 91T298 77Q325 77 346 83T385 98T415 117T439 138L495 79Q483 65 465 50T423 21T367 0T297 -9H284V-39Q330 -48 350 -76T370 -143Q370 -197
335 -224T244 -252H224Z" />
<glyph unicode="&#xe8;" glyph-name="egrave" horiz-adv-x="566" d="M122 239Q127 163 173 120T295 76Q359 76 397 105T462 182L535 144Q522 113 501 86T449 37T381 4T295 -9Q235 -9 185 10T99 66T44 152T24 266Q24 327 43 378T97 466T180 523T285 544Q344 544
392 526T474 473T527 391T547 282Q547 274 547 263T545 239H122ZM284 462Q218 462 176 423T125 316H448Q443 382 399 422T284 462ZM261 714L337 579H246L167 714H261Z" />
<glyph unicode="&#xe9;" glyph-name="eacute" horiz-adv-x="566" d="M122 239Q127 163 173 120T295 76Q359 76 397 105T462 182L535 144Q522 113 501 86T449 37T381 4T295 -9Q235 -9 185 10T99 66T44 152T24 266Q24 327 43 378T97 466T180 523T285 544Q344 544
392 526T474 473T527 391T547 282Q547 274 547 263T545 239H122ZM284 462Q218 462 176 423T125 316H448Q443 382 399 422T284 462ZM412 714L332 579H240L318 714H412Z" />
<glyph unicode="&#xea;" glyph-name="ecircumflex" horiz-adv-x="566" d="M122 239Q127 163 173 120T295 76Q359 76 397 105T462 182L535 144Q522 113 501 86T449 37T381 4T295 -9Q235 -9 185 10T99 66T44 152T24 266Q24 327 43 378T97 466T180 523T285 544Q344
544 392 526T474 473T527 391T547 282Q547 274 547 263T545 239H122ZM284 462Q218 462 176 423T125 316H448Q443 382 399 422T284 462ZM332 715L434 575H347L285 654L223 575H136L237 715H332Z" />
<glyph unicode="&#xeb;" glyph-name="edieresis" horiz-adv-x="566" d="M122 239Q127 163 173 120T295 76Q359 76 397 105T462 182L535 144Q522 113 501 86T449 37T381 4T295 -9Q235 -9 185 10T99 66T44 152T24 266Q24 327 43 378T97 466T180 523T285 544Q344
544 392 526T474 473T527 391T547 282Q547 274 547 263T545 239H122ZM284 462Q218 462 176 423T125 316H448Q443 382 399 422T284 462ZM199 590Q174 590 157 607T140 649Q140 674 157 691T199 708Q225 708 242 691T260 649Q260 624 242 607T199 590ZM370 590Q344
590 327 607T310 649Q310 674 327 691T370 708Q395 708 412 691T430 649Q430 624 412 607T370 590Z" />
<glyph unicode="&#xec;" glyph-name="igrave" horiz-adv-x="193" d="M144 0H49V535H144V0ZM67 714L143 579H52L-27 714H67Z" />
<glyph unicode="&#xed;" glyph-name="iacute" horiz-adv-x="193" d="M144 0H49V535H144V0ZM224 714L144 579H52L130 714H224Z" />
<glyph unicode="&#xee;" glyph-name="icircumflex" horiz-adv-x="193" d="M143 715L236 575H151L96 655L42 575H-43L49 715H143ZM144 0H49V535H144V0Z" />
<glyph unicode="&#xef;" glyph-name="idieresis" horiz-adv-x="193" d="M19 590Q-7 590 -24 607T-41 649Q-41 674 -24 691T19 708Q44 708 61 691T79 649Q79 624 62 607T19 590ZM175 590Q149 590 132 607T115 649Q115 674 132 691T175 708Q200 708 217 691T235
649Q235 624 217 607T175 590ZM144 0H49V535H144V0Z" />
<glyph unicode="&#xf0;" glyph-name="eth" horiz-adv-x="601" d="M306 677L416 711L436 642L362 620L459 522Q519 462 548 402T578 269Q578 209 557 158T500 70T413 12T302 -9Q242 -9 192 10T104 66T45 152T24 265Q24 328 45 378T104 463T190 517T295 536Q304
536 313 535T328 532L272 593L142 554L121 622L218 651L144 731H254L306 677ZM120 265Q120 223 133 189T171 129T228 90T301 76Q341 76 374 90T431 129T468 188T481 265Q481 306 468 341T430 401T373 441T300 456Q260 456 227 442T170 403T133 342T120 265Z" />
<glyph unicode="&#xf1;" glyph-name="ntilde" horiz-adv-x="479" d="M337 343Q337 397 314 426T242 456Q194 456 169 425T144 340V0H49V535H144V487Q150 495 160 504T185 522T220 535T265 541Q311 541 342 526T394 486T423 426T432 353V0H337V343ZM298 582Q278
582 264 588T236 603T211 618T185 625Q169 625 162 614T154 583H84Q83 632 108 665T181 699Q201 699 216 693T243 678T267 663T293 656Q323 656 323 699H393Q394 646 369 614T298 582Z" />
<glyph unicode="&#xf2;" glyph-name="ograve" horiz-adv-x="600" d="M120 267Q120 225 133 191T171 131T228 91T300 77Q340 77 373 91T430 130T467 190T480 267Q480 308 467 343T429 403T372 443T300 458Q260 458 227 444T170 405T133 344T120 267ZM24 267Q24
328 45 378T103 466T190 523T300 544Q360 544 411 524T498 466T555 379T576 268Q576 208 555 157T497 70T409 12T299 -9Q239 -9 189 11T102 67T45 155T24 267ZM274 714L350 579H259L180 714H274Z" />
<glyph unicode="&#xf3;" glyph-name="oacute" horiz-adv-x="600" d="M120 267Q120 225 133 191T171 131T228 91T300 77Q340 77 373 91T430 130T467 190T480 267Q480 308 467 343T429 403T372 443T300 458Q260 458 227 444T170 405T133 344T120 267ZM24 267Q24
328 45 378T103 466T190 523T300 544Q360 544 411 524T498 466T555 379T576 268Q576 208 555 157T497 70T409 12T299 -9Q239 -9 189 11T102 67T45 155T24 267ZM418 714L338 579H246L324 714H418Z" />
<glyph unicode="&#xf4;" glyph-name="ocircumflex" horiz-adv-x="600" d="M120 267Q120 225 133 191T171 131T228 91T300 77Q340 77 373 91T430 130T467 190T480 267Q480 308 467 343T429 403T372 443T300 458Q260 458 227 444T170 405T133 344T120 267ZM24 267Q24
328 45 378T103 466T190 523T300 544Q360 544 411 524T498 466T555 379T576 268Q576 208 555 157T497 70T409 12T299 -9Q239 -9 189 11T102 67T45 155T24 267ZM346 715L448 575H361L299 654L237 575H150L251 715H346Z" />
<glyph unicode="&#xf5;" glyph-name="otilde" horiz-adv-x="600" d="M120 267Q120 225 133 191T171 131T228 91T300 77Q340 77 373 91T430 130T467 190T480 267Q480 308 467 343T429 403T372 443T300 458Q260 458 227 444T170 405T133 344T120 267ZM24 267Q24
328 45 378T103 466T190 523T300 544Q360 544 411 524T498 466T555 379T576 268Q576 208 555 157T497 70T409 12T299 -9Q239 -9 189 11T102 67T45 155T24 267ZM359 582Q339 582 325 588T297 603T272 618T246 625Q230 625 223 614T215 583H145Q144 632 169 665T242
699Q262 699 277 693T304 678T328 663T354 656Q384 656 384 699H454Q455 646 430 614T359 582Z" />
<glyph unicode="&#xf6;" glyph-name="odieresis" horiz-adv-x="600" d="M120 267Q120 225 133 191T171 131T228 91T300 77Q340 77 373 91T430 130T467 190T480 267Q480 308 467 343T429 403T372 443T300 458Q260 458 227 444T170 405T133 344T120 267ZM24 267Q24
328 45 378T103 466T190 523T300 544Q360 544 411 524T498 466T555 379T576 268Q576 208 555 157T497 70T409 12T299 -9Q239 -9 189 11T102 67T45 155T24 267ZM213 590Q188 590 171 607T154 649Q154 674 171 691T213 708Q239 708 256 691T274 649Q274 624 256 607T213
590ZM384 590Q358 590 341 607T324 649Q324 674 341 691T384 708Q409 708 426 691T444 649Q444 624 426 607T384 590Z" />
<glyph unicode="&#xf7;" glyph-name="divide" horiz-adv-x="462" d="M231 104Q205 104 187 122T168 167Q168 193 186 211T231 230Q258 230 275 212T293 167Q293 141 275 123T231 104ZM231 440Q205 440 187 458T168 503Q168 529 186 547T231 565Q258 565 275 547T293
503Q293 476 275 458T231 440ZM24 377H439V297H24V377Z" />
<glyph unicode="&#xf8;" glyph-name="oslash" horiz-adv-x="600" d="M24 267Q24 328 45 378T103 466T190 523T300 544Q345 544 383 532T452 500L493 548L549 500L509 453Q541 417 558 370T576 268Q576 208 555 157T497 70T409 12T299 -9Q254 -9 216 2T148 33L107
-14L52 32L92 79Q60 114 42 162T24 267ZM118 267Q118 198 152 149L396 434Q352 461 300 461Q259 461 226 447T168 407T131 345T118 267ZM482 267Q482 333 449 383L204 99Q244 74 300 74Q340 74 373 88T431 128T468 189T482 267Z" />
<glyph unicode="&#xf9;" glyph-name="ugrave" horiz-adv-x="475" d="M141 193Q141 139 163 110T234 80Q282 80 306 111T331 196V535H427V0H332V49Q320 30 291 12T212 -6Q167 -6 136 8T84 48T55 108T46 182V535H141V193ZM218 714L294 579H203L124 714H218Z" />
<glyph unicode="&#xfa;" glyph-name="uacute" horiz-adv-x="475" d="M141 193Q141 139 163 110T234 80Q282 80 306 111T331 196V535H427V0H332V49Q320 30 291 12T212 -6Q167 -6 136 8T84 48T55 108T46 182V535H141V193ZM616 714L536 579H444L522 714H616Z" />
<glyph unicode="&#xfb;" glyph-name="ucircumflex" horiz-adv-x="475" d="M141 193Q141 139 163 110T234 80Q282 80 306 111T331 196V535H427V0H332V49Q320 30 291 12T212 -6Q167 -6 136 8T84 48T55 108T46 182V535H141V193ZM284 715L386 575H299L237 654L175
575H88L189 715H284Z" />
<glyph unicode="&#xfc;" glyph-name="udieresis" horiz-adv-x="475" d="M141 193Q141 139 163 110T234 80Q282 80 306 111T331 196V535H427V0H332V49Q320 30 291 12T212 -6Q167 -6 136 8T84 48T55 108T46 182V535H141V193ZM407 590Q382 590 365 607T348 649Q348
674 365 691T407 708Q433 708 450 691T468 649Q468 624 450 607T407 590ZM578 590Q552 590 535 607T518 649Q518 674 535 691T578 708Q603 708 620 691T638 649Q638 624 620 607T578 590Z" />
<glyph unicode="&#xfd;" glyph-name="yacute" horiz-adv-x="512" d="M143 -175L214 10L-2 535H103L263 137L415 535H514L236 -175H143ZM382 714L302 579H210L288 714H382Z" />
<glyph unicode="&#xfe;" glyph-name="thorn" horiz-adv-x="621" d="M140 267Q140 225 153 190T190 130T247 90T321 76Q361 76 394 90T451 129T488 190T501 267Q501 309 488 344T451 404T394 444T320 459Q280 459 247 445T190 405T153 344T140 267ZM144 -176H49V731H144V461Q168
492 215 518T329 544Q389 544 438 524T523 468T578 380T597 268Q597 209 578 159T523 71T437 13T323 -9Q288 -9 259 -1T208 18T169 43T144 68V-176Z" />
<glyph unicode="&#xff;" glyph-name="ydieresis" horiz-adv-x="512" d="M143 -175L214 10L-2 535H103L263 137L415 535H514L236 -175H143ZM176 590Q151 590 134 607T117 649Q117 674 134 691T176 708Q202 708 219 691T237 649Q237 624 219 607T176 590ZM347 590Q321
590 304 607T287 649Q287 674 304 691T347 708Q372 708 389 691T407 649Q407 624 389 607T347 590Z" />
<glyph unicode="&#x100;" glyph-name="Amacron" horiz-adv-x="631" d="M189 818H429V745H189V818ZM441 228H181L95 0H-2L258 692H361L633 0H530L441 228ZM212 312H408L309 567L212 312Z" />
<glyph unicode="&#x101;" glyph-name="amacron" horiz-adv-x="459" d="M26 171Q26 209 39 241T76 297T133 334T207 347Q248 347 276 336T318 311V356Q318 408 295 436T223 464Q174 464 155 438T134 379H45Q45 414 56 444T90 495T145 529T224 541Q275 541 310 527T368
488T401 426T412 345V0H328V42Q309 20 280 6T207 -8Q169 -8 136 4T79 40T40 96T26 171ZM118 171Q118 128 145 99T218 70Q262 70 291 99T320 171Q320 215 291 243T217 271Q172 271 145 243T118 171ZM111 670H341V597H111V670Z" />
<glyph unicode="&#x102;" glyph-name="Abreve" horiz-adv-x="631" d="M310 730Q271 730 245 742T202 774T179 815T171 857H247Q247 848 250 838T261 820T280 806T310 800Q328 800 340 805T359 819T369 838T373 857H447Q447 837 440 815T416 774T374 743T310 730ZM441
228H181L95 0H-2L258 692H361L633 0H530L441 228ZM212 312H408L309 567L212 312Z" />
<glyph unicode="&#x103;" glyph-name="abreve" horiz-adv-x="459" d="M26 171Q26 209 39 241T76 297T133 334T207 347Q248 347 276 336T318 311V356Q318 408 295 436T223 464Q174 464 155 438T134 379H45Q45 414 56 444T90 495T145 529T224 541Q275 541 310 527T368
488T401 426T412 345V0H328V42Q309 20 280 6T207 -8Q169 -8 136 4T79 40T40 96T26 171ZM118 171Q118 128 145 99T218 70Q262 70 291 99T320 171Q320 215 291 243T217 271Q172 271 145 243T118 171ZM222 571Q183 571 157 584T114 617T91 660T84 704H158Q158 693
161 682T172 661T191 645T222 639Q240 639 252 645T271 661T282 682T286 704H358Q358 683 351 660T328 617T286 584T222 571Z" />
<glyph unicode="&#x104;" glyph-name="Aogonek" horiz-adv-x="631" d="M441 228H181L95 0H-2L258 692H361L634 -3Q602 -13 590 -28T577 -62Q577 -85 594 -95T634 -106V-175Q561 -177 525 -150T489 -80Q489 -57 499 -36T530 0L441 228ZM212 312H408L309 567L212 312Z" />
<glyph unicode="&#x105;" glyph-name="aogonek" horiz-adv-x="459" d="M26 171Q26 209 39 241T76 297T133 334T207 347Q248 347 276 336T318 311V356Q318 408 295 436T223 464Q174 464 155 438T134 379H45Q45 414 56 444T90 495T145 529T224 541Q275 541 310 527T368
488T401 426T412 345V-3Q380 -13 368 -28T356 -63Q356 -86 372 -96T412 -107V-176Q338 -179 303 -152T267 -81Q267 -56 281 -33T328 7V42Q309 20 280 6T207 -8Q169 -8 136 4T79 40T40 96T26 171ZM118 171Q118 128 145 99T218 70Q262 70 291 99T320 171Q320 215
291 243T217 271Q172 271 145 243T118 171Z" />
<glyph unicode="&#x106;" glyph-name="Cacute" horiz-adv-x="624" d="M489 855L411 729H318L393 855H489ZM611 78Q594 61 571 45T520 16T457 -5T383 -13Q303 -13 237 14T124 88T52 202T26 346Q26 424 52 490T125 604T237 679T381 706Q449 706 505 685T604 626L546
554Q516 580 474 597T381 615Q323 615 277 595T197 539T147 454T129 346Q129 287 147 238T200 154T281 98T384 78Q443 78 485 100T554 146L611 78Z" />
<glyph unicode="&#x107;" glyph-name="cacute" horiz-adv-x="509" d="M299 77Q326 77 347 83T386 98T416 117T440 138L496 79Q484 65 466 50T424 21T368 0T298 -9Q236 -9 186 12T99 70T44 157T24 267Q24 326 44 376T101 464T188 523T297 544Q336 544 368 536T424
516T467 488T496 458L437 398Q416 421 383 439T298 458Q258 458 226 444T170 404T134 343T121 267Q121 224 134 189T172 129T228 91T299 77ZM411 714L331 579H239L317 714H411Z" />
<glyph unicode="&#x108;" glyph-name="Ccircumflex" horiz-adv-x="624" d="M413 855L521 729H429L364 797L300 729H207L315 855H413ZM611 78Q594 61 571 45T520 16T457 -5T383 -13Q303 -13 237 14T124 88T52 202T26 346Q26 424 52 490T125 604T237 679T381 706Q449
706 505 685T604 626L546 554Q516 580 474 597T381 615Q323 615 277 595T197 539T147 454T129 346Q129 287 147 238T200 154T281 98T384 78Q443 78 485 100T554 146L611 78Z" />
<glyph unicode="&#x109;" glyph-name="ccircumflex" horiz-adv-x="509" d="M299 77Q326 77 347 83T386 98T416 117T440 138L496 79Q484 65 466 50T424 21T368 0T298 -9Q236 -9 186 12T99 70T44 157T24 267Q24 326 44 376T101 464T188 523T297 544Q336 544 368
536T424 516T467 488T496 458L437 398Q416 421 383 439T298 458Q258 458 226 444T170 404T134 343T121 267Q121 224 134 189T172 129T228 91T299 77ZM330 715L432 575H345L283 654L221 575H134L235 715H330Z" />
<glyph unicode="&#x10a;" glyph-name="Cdotaccent" horiz-adv-x="624" d="M366 741Q340 741 322 758T304 802Q304 828 321 845T365 863Q391 863 409 846T427 802Q427 776 410 759T366 741ZM611 78Q594 61 571 45T520 16T457 -5T383 -13Q303 -13 237 14T124 88T52
202T26 346Q26 424 52 490T125 604T237 679T381 706Q449 706 505 685T604 626L546 554Q516 580 474 597T381 615Q323 615 277 595T197 539T147 454T129 346Q129 287 147 238T200 154T281 98T384 78Q443 78 485 100T554 146L611 78Z" />
<glyph unicode="&#x10b;" glyph-name="cdotaccent" horiz-adv-x="509" d="M299 77Q326 77 347 83T386 98T416 117T440 138L496 79Q484 65 466 50T424 21T368 0T298 -9Q236 -9 186 12T99 70T44 157T24 267Q24 326 44 376T101 464T188 523T297 544Q336 544 368 536T424
516T467 488T496 458L437 398Q416 421 383 439T298 458Q258 458 226 444T170 404T134 343T121 267Q121 224 134 189T172 129T228 91T299 77ZM282 589Q256 589 238 606T220 650Q220 676 237 693T281 711Q307 711 325 694T343 650Q343 624 326 607T282 589Z" />
<glyph unicode="&#x10c;" glyph-name="Ccaron" horiz-adv-x="624" d="M323 729L216 855H308L373 785L438 855H529L421 729H323ZM611 78Q594 61 571 45T520 16T457 -5T383 -13Q303 -13 237 14T124 88T52 202T26 346Q26 424 52 490T125 604T237 679T381 706Q449
706 505 685T604 626L546 554Q516 580 474 597T381 615Q323 615 277 595T197 539T147 454T129 346Q129 287 147 238T200 154T281 98T384 78Q443 78 485 100T554 146L611 78Z" />
<glyph unicode="&#x10d;" glyph-name="ccaron" horiz-adv-x="509" d="M299 77Q326 77 347 83T386 98T416 117T440 138L496 79Q484 65 466 50T424 21T368 0T298 -9Q236 -9 186 12T99 70T44 157T24 267Q24 326 44 376T101 464T188 523T297 544Q336 544 368 536T424
516T467 488T496 458L437 398Q416 421 383 439T298 458Q258 458 226 444T170 404T134 343T121 267Q121 224 134 189T172 129T228 91T299 77ZM233 578L132 718H219L281 638L343 718H430L328 578H233Z" />
<glyph unicode="&#x10e;" glyph-name="Dcaron" horiz-adv-x="550" d="M207 729L100 855H192L257 785L322 855H413L305 729H207ZM152 88H173Q292 87 356 155T421 346Q421 468 357 536T173 604H152V88ZM169 692Q253 692 318 668T430 598T500 490T524 347Q524 269
500 205T430 96T318 25T169 0H54V692H169Z" />
<glyph unicode="&#x10f;" glyph-name="dcaron" horiz-adv-x="621" d="M482 79Q471 64 454 48T414 20T361 -1T297 -9Q237 -9 187 11T100 67T44 154T24 267Q24 326 44 376T100 464T186 523T295 544Q359 544 405 521T477 467V731H572V0H482V79ZM120 267Q120 225 133
190T171 130T228 90T300 76Q340 76 373 90T431 129T468 190T481 267Q481 309 468 344T430 404T373 444T300 459Q260 459 227 445T170 405T133 344T120 267ZM704 731L688 577H610L624 731H704Z" />
<glyph unicode="&#x110;" glyph-name="Dcroat" horiz-adv-x="562" d="M180 692Q264 692 329 668T441 598T511 490T535 347Q535 269 511 205T441 96T329 25T180 0H65V307H9V398H65V692H180ZM163 398H283V307H163V88H184Q303 87 367 155T432 346Q432 468 368 536T184
604H163V398Z" />
<glyph unicode="&#x111;" glyph-name="dcroat" horiz-adv-x="628" d="M351 662H477V731H572V662H624V591H572V0H482V79Q471 64 454 48T414 20T361 -1T297 -9Q237 -9 187 11T100 67T44 154T24 267Q24 326 44 376T100 464T186 523T295 544Q359 544 405 521T477 467V591H351V662ZM120
267Q120 225 133 190T171 130T228 90T300 76Q340 76 373 90T431 129T468 190T481 267Q481 309 468 344T430 404T373 444T300 459Q260 459 227 445T170 405T133 344T120 267Z" />
<glyph unicode="&#x112;" glyph-name="Emacron" horiz-adv-x="393" d="M89 818H329V745H89V818ZM54 0V692H355V601H152V401H350V311H152V91H358V0H54Z" />
<glyph unicode="&#x113;" glyph-name="emacron" horiz-adv-x="566" d="M122 239Q127 163 173 120T295 76Q359 76 397 105T462 182L535 144Q522 113 501 86T449 37T381 4T295 -9Q235 -9 185 10T99 66T44 152T24 266Q24 327 43 378T97 466T180 523T285 544Q344 544
392 526T474 473T527 391T547 282Q547 274 547 263T545 239H122ZM284 462Q218 462 176 423T125 316H448Q443 382 399 422T284 462ZM170 670H400V597H170V670Z" />
<glyph unicode="&#x114;" glyph-name="Ebreve" horiz-adv-x="393" d="M208 730Q169 730 143 742T100 774T77 815T69 857H145Q145 848 148 838T159 820T178 806T208 800Q226 800 238 805T257 819T267 838T271 857H345Q345 837 338 815T314 774T272 743T208 730ZM54
0V692H355V601H152V401H350V311H152V91H358V0H54Z" />
<glyph unicode="&#x115;" glyph-name="ebreve" horiz-adv-x="566" d="M122 239Q127 163 173 120T295 76Q359 76 397 105T462 182L535 144Q522 113 501 86T449 37T381 4T295 -9Q235 -9 185 10T99 66T44 152T24 266Q24 327 43 378T97 466T180 523T285 544Q344 544
392 526T474 473T527 391T547 282Q547 274 547 263T545 239H122ZM284 462Q218 462 176 423T125 316H448Q443 382 399 422T284 462ZM286 571Q247 571 221 584T178 617T155 660T148 704H222Q222 693 225 682T236 661T255 645T286 639Q304 639 316 645T335 661T346
682T350 704H422Q422 683 415 660T392 617T350 584T286 571Z" />
<glyph unicode="&#x116;" glyph-name="Edotaccent" horiz-adv-x="393" d="M203 741Q177 741 159 758T141 802Q141 828 158 845T202 863Q228 863 246 846T264 802Q264 776 247 759T203 741ZM54 0V692H355V601H152V401H350V311H152V91H358V0H54Z" />
<glyph unicode="&#x117;" glyph-name="edotaccent" horiz-adv-x="566" d="M122 239Q127 163 173 120T295 76Q359 76 397 105T462 182L535 144Q522 113 501 86T449 37T381 4T295 -9Q235 -9 185 10T99 66T44 152T24 266Q24 327 43 378T97 466T180 523T285 544Q344
544 392 526T474 473T527 391T547 282Q547 274 547 263T545 239H122ZM284 462Q218 462 176 423T125 316H448Q443 382 399 422T284 462ZM285 589Q259 589 241 606T223 650Q223 676 240 693T284 711Q310 711 328 694T346 650Q346 624 329 607T285 589Z" />
<glyph unicode="&#x118;" glyph-name="Eogonek" horiz-adv-x="393" d="M318 0Q287 -9 275 -25T262 -60Q262 -84 278 -94T318 -106V-175Q245 -177 209 -150T173 -80Q173 -57 184 -37T220 0H54V692H355V601H152V401H350V311H152V91H358V0H318Z" />
<glyph unicode="&#x119;" glyph-name="eogonek" horiz-adv-x="566" d="M295 -9Q235 -9 185 10T99 66T44 152T24 266Q24 327 43 378T97 466T180 523T285 544Q344 544 392 526T474 473T527 391T547 282Q547 274 547 263T545 239H122Q127 163 173 120T295 76Q359
76 397 105T462 182L535 144Q522 115 503 89T456 40Q420 10 406 -13T391 -59Q391 -86 411 -96T462 -107V-175Q421 -177 391 -171T342 -152T313 -122T303 -83Q303 -63 312 -43T338 -6Q317 -9 295 -9ZM284 462Q218 462 176 423T125 316H448Q443 382 399 422T284 462Z"
/>
<glyph unicode="&#x11a;" glyph-name="Ecaron" horiz-adv-x="393" d="M157 729L50 855H142L207 785L272 855H363L255 729H157ZM54 0V692H355V601H152V401H350V311H152V91H358V0H54Z" />
<glyph unicode="&#x11b;" glyph-name="ecaron" horiz-adv-x="566" d="M122 239Q127 163 173 120T295 76Q359 76 397 105T462 182L535 144Q522 113 501 86T449 37T381 4T295 -9Q235 -9 185 10T99 66T44 152T24 266Q24 327 43 378T97 466T180 523T285 544Q344 544
392 526T474 473T527 391T547 282Q547 274 547 263T545 239H122ZM284 462Q218 462 176 423T125 316H448Q443 382 399 422T284 462ZM238 578L137 718H224L286 638L348 718H435L333 578H238Z" />
<glyph unicode="&#x11c;" glyph-name="Gcircumflex" horiz-adv-x="716" d="M426 855L534 729H442L377 797L313 729H220L328 855H426ZM668 0H572V51Q543 26 494 7T379 -13Q302 -13 237 13T125 86T52 200T26 346Q26 423 52 489T125 603T237 678T380 706Q432 706
474 696T550 668T607 629T648 584L575 524Q561 540 543 556T501 586T447 607T379 615Q324 615 278 595T199 540T148 455T129 346Q129 286 148 237T200 152T280 98T383 78Q446 78 493 98T571 150V272H445V356H668V0Z" />
<glyph unicode="&#x11d;" glyph-name="gcircumflex" horiz-adv-x="620" d="M480 535H572V91Q572 16 551 -36T491 -121T402 -168T292 -183Q223 -183 169 -165T83 -125L120 -50Q146 -67 190 -83T293 -100Q330 -100 363 -91T422 -63T462 -13T477 61V76Q468 62 453
47T415 20T363 -1T298 -9Q238 -9 188 11T101 67T44 154T24 267Q24 326 44 376T101 464T187 523T296 544Q358 544 406 521T480 463V535ZM120 267Q120 225 133 190T171 130T228 90T300 76Q340 76 373 90T431 129T468 190T481 267Q481 309 468 344T430 404T373 444T300
459Q260 459 227 445T170 405T133 344T120 267ZM352 715L454 575H367L305 654L243 575H156L257 715H352Z" />
<glyph unicode="&#x11e;" glyph-name="Gbreve" horiz-adv-x="716" d="M368 730Q329 730 303 742T260 774T237 815T229 857H305Q305 848 308 838T319 820T338 806T368 800Q386 800 398 805T417 819T427 838T431 857H505Q505 837 498 815T474 774T432 743T368 730ZM668
0H572V51Q543 26 494 7T379 -13Q302 -13 237 13T125 86T52 200T26 346Q26 423 52 489T125 603T237 678T380 706Q432 706 474 696T550 668T607 629T648 584L575 524Q561 540 543 556T501 586T447 607T379 615Q324 615 278 595T199 540T148 455T129 346Q129 286 148
237T200 152T280 98T383 78Q446 78 493 98T571 150V272H445V356H668V0Z" />
<glyph unicode="&#x11f;" glyph-name="gbreve" horiz-adv-x="620" d="M480 535H572V91Q572 16 551 -36T491 -121T402 -168T292 -183Q223 -183 169 -165T83 -125L120 -50Q146 -67 190 -83T293 -100Q330 -100 363 -91T422 -63T462 -13T477 61V76Q468 62 453 47T415
20T363 -1T298 -9Q238 -9 188 11T101 67T44 154T24 267Q24 326 44 376T101 464T187 523T296 544Q358 544 406 521T480 463V535ZM120 267Q120 225 133 190T171 130T228 90T300 76Q340 76 373 90T431 129T468 190T481 267Q481 309 468 344T430 404T373 444T300 459Q260
459 227 445T170 405T133 344T120 267ZM301 571Q262 571 236 584T193 617T170 660T163 704H237Q237 693 240 682T251 661T270 645T301 639Q319 639 331 645T350 661T361 682T365 704H437Q437 683 430 660T407 617T365 584T301 571Z" />
<glyph unicode="&#x120;" glyph-name="Gdotaccent" horiz-adv-x="716" d="M379 741Q353 741 335 758T317 802Q317 828 334 845T378 863Q404 863 422 846T440 802Q440 776 423 759T379 741ZM668 0H572V51Q543 26 494 7T379 -13Q302 -13 237 13T125 86T52 200T26
346Q26 423 52 489T125 603T237 678T380 706Q432 706 474 696T550 668T607 629T648 584L575 524Q561 540 543 556T501 586T447 607T379 615Q324 615 278 595T199 540T148 455T129 346Q129 286 148 237T200 152T280 98T383 78Q446 78 493 98T571 150V272H445V356H668V0Z"
/>
<glyph unicode="&#x121;" glyph-name="gdotaccent" horiz-adv-x="620" d="M480 535H572V91Q572 16 551 -36T491 -121T402 -168T292 -183Q223 -183 169 -165T83 -125L120 -50Q146 -67 190 -83T293 -100Q330 -100 363 -91T422 -63T462 -13T477 61V76Q468 62 453
47T415 20T363 -1T298 -9Q238 -9 188 11T101 67T44 154T24 267Q24 326 44 376T101 464T187 523T296 544Q358 544 406 521T480 463V535ZM120 267Q120 225 133 190T171 130T228 90T300 76Q340 76 373 90T431 129T468 190T481 267Q481 309 468 344T430 404T373 444T300
459Q260 459 227 445T170 405T133 344T120 267ZM299 589Q273 589 255 606T237 650Q237 676 254 693T298 711Q324 711 342 694T360 650Q360 624 343 607T299 589Z" />
<glyph unicode="&#x122;" glyph-name="Gcommaaccent" horiz-adv-x="716" d="M668 0H572V51Q543 26 494 7T379 -13Q302 -13 237 13T125 86T52 200T26 346Q26 423 52 489T125 603T237 678T380 706Q432 706 474 696T550 668T607 629T648 584L575 524Q561 540 543
556T501 586T447 607T379 615Q324 615 278 595T199 540T148 455T129 346Q129 286 148 237T200 152T280 98T383 78Q446 78 493 98T571 150V272H445V356H668V0ZM360 -156Q339 -151 326 -136T313 -97Q313 -71 330 -54T376 -37Q405 -37 421 -55T438 -99Q438 -117 432
-132T419 -161L380 -242H321L360 -156Z" />
<glyph unicode="&#x123;" glyph-name="gcommaaccent" horiz-adv-x="620" d="M480 535H572V91Q572 16 551 -36T491 -121T402 -168T292 -183Q223 -183 169 -165T83 -125L120 -50Q146 -67 190 -83T293 -100Q330 -100 363 -91T422 -63T462 -13T477 61V76Q468 62 453
47T415 20T363 -1T298 -9Q238 -9 188 11T101 67T44 154T24 267Q24 326 44 376T101 464T187 523T296 544Q358 544 406 521T480 463V535ZM120 267Q120 225 133 190T171 130T228 90T300 76Q340 76 373 90T431 129T468 190T481 267Q481 309 468 344T430 404T373 444T300
459Q260 459 227 445T170 405T133 344T120 267ZM313 692Q334 687 347 673T360 635Q360 609 343 592T297 574Q268 574 252 592T235 635Q235 654 241 668T254 697L293 779H352L313 692Z" />
<glyph unicode="&#x124;" glyph-name="Hcircumflex" horiz-adv-x="635" d="M365 855L473 729H381L316 797L252 729H159L267 855H365ZM581 0H483V312H152V0H54V692H152V405H483V692H581V0Z" />
<glyph unicode="&#x125;" glyph-name="hcircumflex" horiz-adv-x="479" d="M285 891L393 765H301L236 833L172 765H79L187 891H285ZM337 343Q337 397 314 426T242 456Q194 456 169 425T144 340V0H49V731H144V485Q156 503 185 522T265 541Q311 541 342 526T394
486T423 426T432 353V0H337V343Z" />
<glyph unicode="&#x126;" glyph-name="Hbar" horiz-adv-x="649" d="M587 592H645V516H587V0H489V312H158V0H60V516H4V592H60V692H158V592H489V692H587V592ZM489 405V516H158V405H489Z" />
<glyph unicode="&#x127;" glyph-name="hbar" horiz-adv-x="486" d="M4 662H55V731H150V662H272V591H150V485Q162 503 191 522T271 541Q317 541 348 526T400 486T429 426T438 353V0H343V343Q343 397 320 426T248 456Q200 456 175 425T150 340V0H55V591H4V662Z" />
<glyph unicode="&#x128;" glyph-name="Itilde" horiz-adv-x="206" d="M164 736Q144 736 129 742T101 757T76 772T49 779Q33 779 25 768T16 737H-54Q-56 786 -30 819T45 853Q65 853 80 847T107 832T132 818T158 811Q189 811 191 853H261Q262 800 236 768T164 736ZM152
0H54V692H152V0Z" />
<glyph unicode="&#x129;" glyph-name="itilde" horiz-adv-x="193" d="M144 0H49V535H144V0ZM413 582Q393 582 379 588T351 603T326 618T300 625Q284 625 277 614T269 583H199Q198 632 223 665T296 699Q316 699 331 693T358 678T382 663T408 656Q438 656 438 699H508Q509
646 484 614T413 582Z" />
<glyph unicode="&#x12a;" glyph-name="Imacron" horiz-adv-x="206" d="M-16 818H224V745H-16V818ZM152 0H54V692H152V0Z" />
<glyph unicode="&#x12b;" glyph-name="imacron" horiz-adv-x="193" d="M-7 670H200V597H-7V670ZM144 0H49V535H144V0Z" />
<glyph unicode="&#x12c;" glyph-name="Ibreve" horiz-adv-x="206" d="M104 730Q65 730 39 742T-4 774T-27 815T-35 857H41Q41 848 44 838T55 820T74 806T104 800Q122 800 134 805T153 819T163 838T167 857H241Q241 837 234 815T210 774T168 743T104 730ZM152 0H54V692H152V0Z"
/>
<glyph unicode="&#x12d;" glyph-name="ibreve" horiz-adv-x="193" d="M144 0H49V535H144V0ZM354 571Q315 571 289 584T246 617T223 660T216 704H290Q290 693 293 682T304 661T323 645T354 639Q372 639 384 645T403 661T414 682T418 704H490Q490 683 483 660T460
617T418 584T354 571Z" />
<glyph unicode="&#x12e;" glyph-name="Iogonek" horiz-adv-x="206" d="M152 -3Q124 -14 114 -29T103 -62Q103 -85 119 -95T159 -106V-175Q85 -178 50 -151T14 -81Q14 -32 54 0V692H152V-3Z" />
<glyph unicode="&#x12f;" glyph-name="iogonek" horiz-adv-x="193" d="M144 -3Q112 -13 100 -28T87 -62Q87 -85 103 -95T144 -106V-175Q71 -178 35 -151T-1 -80Q-1 -56 10 -35T49 5V535H144V-3ZM96 587Q70 587 52 605T33 650Q33 677 51 695T96 713Q122 713 141
695T160 650Q160 624 141 606T96 587Z" />
<glyph unicode="&#x130;" glyph-name="Idotaccent" horiz-adv-x="206" d="M103 741Q77 741 59 758T41 802Q41 828 58 845T102 863Q128 863 146 846T164 802Q164 776 147 759T103 741ZM152 0H54V692H152V0Z" />
<glyph unicode="&#x131;" glyph-name="dotlessi" horiz-adv-x="192" d="M144 0H49V535H144V0Z" />
<glyph unicode="&#x132;" glyph-name="IJ" horiz-adv-x="468" d="M152 0H54V692H152V0ZM415 142Q415 109 409 83T387 38T344 9T273 -1Q259 -1 245 -1T225 0V89H264Q297 89 307 106T317 150V692H415V142Z" />
<glyph unicode="&#x133;" glyph-name="ij" horiz-adv-x="385" d="M144 0H49V535H144V0ZM96 587Q70 587 52 605T33 650Q33 677 51 695T96 713Q122 713 141 695T160 650Q160 624 141 606T96 587ZM336 -11Q336 -48 329 -78T303 -130T256 -163T183 -175H152V-93H174Q196
-93 209 -87T229 -69T238 -44T241 -12V535H336V-11ZM288 587Q262 587 244 605T225 650Q225 677 243 695T288 713Q314 713 333 695T352 650Q352 624 333 606T288 587Z" />
<glyph unicode="&#x134;" glyph-name="Jcircumflex" horiz-adv-x="262" d="M202 855L302 729H213L154 798L95 729H5L104 855H202ZM208 142Q208 109 202 83T180 38T137 9T66 -1Q52 -1 38 -1T18 0V89H57Q90 89 100 106T110 150V692H208V142Z" />
<glyph unicode="&#x135;" glyph-name="jcircumflex" horiz-adv-x="193" d="M144 -11Q144 -48 137 -78T111 -130T64 -163T-9 -175H-40V-93H-18Q4 -93 17 -87T37 -69T46 -44T49 -12V535H144V-11ZM401 715L503 575H416L354 654L292 575H205L306 715H401Z" />
<glyph unicode="&#x136;" glyph-name="Kcommaaccent" horiz-adv-x="525" d="M152 393L403 692H520L238 362L529 0H412L152 316V0H54V692H152V393ZM248 -156Q227 -151 214 -136T201 -97Q201 -71 218 -54T264 -37Q293 -37 309 -55T326 -99Q326 -117 320 -132T307
-161L268 -242H209L248 -156Z" />
<glyph unicode="&#x137;" glyph-name="kcommaaccent" horiz-adv-x="463" d="M236 286L463 0H346L144 251V0H49V731H144V309L340 535H455L236 286ZM225 -156Q204 -151 191 -136T178 -97Q178 -71 195 -54T241 -37Q270 -37 286 -55T303 -99Q303 -117 297 -132T284
-161L245 -242H186L225 -156Z" />
<glyph unicode="&#x139;" glyph-name="Lacute" horiz-adv-x="374" d="M233 855L155 729H62L137 855H233ZM54 0V692H152V91H353V0H54Z" />
<glyph unicode="&#x13a;" glyph-name="lacute" horiz-adv-x="193" d="M221 891L143 765H50L125 891H221ZM144 0H49V731H144V0Z" />
<glyph unicode="&#x13b;" glyph-name="Lcommaaccent" horiz-adv-x="374" d="M54 0V692H152V91H353V0H54ZM442 -156Q421 -151 408 -136T395 -97Q395 -71 412 -54T458 -37Q487 -37 503 -55T520 -99Q520 -117 514 -132T501 -161L462 -242H403L442 -156Z" />
<glyph unicode="&#x13c;" glyph-name="lcommaaccent" horiz-adv-x="193" d="M144 0H49V731H144V0ZM337 -156Q316 -151 303 -136T290 -97Q290 -71 307 -54T353 -37Q382 -37 398 -55T415 -99Q415 -117 409 -132T396 -161L357 -242H298L337 -156Z" />
<glyph unicode="&#x13d;" glyph-name="Lcaron" horiz-adv-x="374" d="M54 0V692H152V91H353V0H54ZM541 949L525 795H447L461 949H541Z" />
<glyph unicode="&#x13e;" glyph-name="lcaron" horiz-adv-x="193" d="M144 0H49V731H144V0ZM533 731L517 577H439L453 731H533Z" />
<glyph unicode="&#x13f;" glyph-name="Ldot" horiz-adv-x="399" d="M303 286Q274 286 255 305T235 354Q235 383 254 402T303 421Q332 421 351 402T370 354Q370 325 351 306T303 286ZM54 0V692H152V91H353V0H54Z" />
<glyph unicode="&#x140;" glyph-name="ldot" horiz-adv-x="299" d="M181 354Q181 381 199 399T245 418Q272 418 290 400T309 354Q309 327 291 309T245 290Q218 290 200 308T181 354ZM144 0H49V731H144V0Z" />
<glyph unicode="&#x141;" glyph-name="Lslash" horiz-adv-x="376" d="M60 0V215L9 185V275L60 306V692H158V365L290 446V351L158 273V91H359V0H60Z" />
<glyph unicode="&#x142;" glyph-name="lslash" horiz-adv-x="212" d="M153 499L205 535V438L153 402V0H58V338L9 305V399L58 433V731H153V499Z" />
<glyph unicode="&#x143;" glyph-name="Nacute" horiz-adv-x="657" d="M449 855L371 729H278L353 855H449ZM150 525V0H54V692H155L507 161V692H603V0H504L150 525Z" />
<glyph unicode="&#x144;" glyph-name="nacute" horiz-adv-x="479" d="M337 343Q337 397 314 426T242 456Q194 456 169 425T144 340V0H49V535H144V487Q150 495 160 504T185 522T220 535T265 541Q311 541 342 526T394 486T423 426T432 353V0H337V343ZM619 714L539
579H447L525 714H619Z" />
<glyph unicode="&#x145;" glyph-name="Ncommaaccent" horiz-adv-x="657" d="M150 525V0H54V692H155L507 161V692H603V0H504L150 525ZM321 -156Q300 -151 287 -136T274 -97Q274 -71 291 -54T337 -37Q366 -37 382 -55T399 -99Q399 -117 393 -132T380 -161L341 -242H282L321
-156Z" />
<glyph unicode="&#x146;" glyph-name="ncommaaccent" horiz-adv-x="479" d="M337 343Q337 397 314 426T242 456Q194 456 169 425T144 340V0H49V535H144V487Q150 495 160 504T185 522T220 535T265 541Q311 541 342 526T394 486T423 426T432 353V0H337V343ZM229
-156Q208 -151 195 -136T182 -97Q182 -71 199 -54T245 -37Q274 -37 290 -55T307 -99Q307 -117 301 -132T288 -161L249 -242H190L229 -156Z" />
<glyph unicode="&#x147;" glyph-name="Ncaron" horiz-adv-x="657" d="M287 729L180 855H272L337 785L402 855H493L385 729H287ZM150 525V0H54V692H155L507 161V692H603V0H504L150 525Z" />
<glyph unicode="&#x148;" glyph-name="ncaron" horiz-adv-x="479" d="M337 343Q337 397 314 426T242 456Q194 456 169 425T144 340V0H49V535H144V487Q150 495 160 504T185 522T220 535T265 541Q311 541 342 526T394 486T423 426T432 353V0H337V343ZM192 578L91
718H178L240 638L302 718H389L287 578H192Z" />
<glyph unicode="&#x149;" glyph-name="napostrophe" horiz-adv-x="573" d="M431 343Q431 397 408 426T336 456Q288 456 263 425T238 340V0H143V535H238V487Q244 495 254 504T279 522T314 535T359 541Q405 541 436 526T488 486T517 426T526 353V0H431V343ZM298
573Q276 579 263 594T249 633Q249 662 267 680T315 699Q344 699 362 681T381 633Q381 616 376 602T362 567L320 469H253L298 573Z" />
<glyph unicode="&#x14a;" glyph-name="Eng" horiz-adv-x="658" d="M150 525V0H54V692H156L508 162V692H604V-36Q604 -68 598 -94T576 -139T533 -168T463 -178Q449 -178 437 -178T419 -177V-88H454Q485 -88 495 -73T506 -34V-2L150 525Z" />
<glyph unicode="&#x14b;" glyph-name="eng" horiz-adv-x="479" d="M432 -11Q432 -48 425 -78T399 -130T352 -163T279 -175H248V-93H270Q292 -93 305 -87T325 -69T334 -44T337 -12V344Q337 397 314 427T242 457Q194 457 169 426T144 341V0H49V535H144V487Q150 495
160 504T185 522T220 535T265 541Q311 541 342 526T394 486T423 426T432 353V-11Z" />
<glyph unicode="&#x14c;" glyph-name="Omacron" horiz-adv-x="761" d="M260 818H500V745H260V818ZM26 346Q26 424 52 490T126 604T237 679T379 706Q458 706 523 679T636 604T709 490T735 347Q735 270 709 204T636 90T524 15T380 -13Q302 -13 237 13T125 88T52
202T26 346ZM129 346Q129 287 147 238T199 154T278 98T380 78Q437 78 483 98T563 153T614 238T632 346Q632 404 614 453T562 539T483 595T380 615Q323 615 277 595T198 539T147 454T129 346Z" />
<glyph unicode="&#x14d;" glyph-name="omacron" horiz-adv-x="600" d="M120 267Q120 225 133 191T171 131T228 91T300 77Q340 77 373 91T430 130T467 190T480 267Q480 308 467 343T429 403T372 443T300 458Q260 458 227 444T170 405T133 344T120 267ZM24 267Q24
328 45 378T103 466T190 523T300 544Q360 544 411 524T498 466T555 379T576 268Q576 208 555 157T497 70T409 12T299 -9Q239 -9 189 11T102 67T45 155T24 267ZM184 670H414V597H184V670Z" />
<glyph unicode="&#x14e;" glyph-name="Obreve" horiz-adv-x="761" d="M382 730Q343 730 317 742T274 774T251 815T243 857H319Q319 848 322 838T333 820T352 806T382 800Q400 800 412 805T431 819T441 838T445 857H519Q519 837 512 815T488 774T446 743T382 730ZM26
346Q26 424 52 490T126 604T237 679T379 706Q458 706 523 679T636 604T709 490T735 347Q735 270 709 204T636 90T524 15T380 -13Q302 -13 237 13T125 88T52 202T26 346ZM129 346Q129 287 147 238T199 154T278 98T380 78Q437 78 483 98T563 153T614 238T632 346Q632
404 614 453T562 539T483 595T380 615Q323 615 277 595T198 539T147 454T129 346Z" />
<glyph unicode="&#x14f;" glyph-name="obreve" horiz-adv-x="600" d="M120 267Q120 225 133 191T171 131T228 91T300 77Q340 77 373 91T430 130T467 190T480 267Q480 308 467 343T429 403T372 443T300 458Q260 458 227 444T170 405T133 344T120 267ZM24 267Q24
328 45 378T103 466T190 523T300 544Q360 544 411 524T498 466T555 379T576 268Q576 208 555 157T497 70T409 12T299 -9Q239 -9 189 11T102 67T45 155T24 267ZM300 571Q261 571 235 584T192 617T169 660T162 704H236Q236 693 239 682T250 661T269 645T300 639Q318
639 330 645T349 661T360 682T364 704H436Q436 683 429 660T406 617T364 584T300 571Z" />
<glyph unicode="&#x150;" glyph-name="Ohungarumlaut" horiz-adv-x="761" d="M418 855L355 729H265L326 855H418ZM569 855L505 729H416L478 855H569ZM26 346Q26 424 52 490T126 604T237 679T379 706Q458 706 523 679T636 604T709 490T735 347Q735 270 709 204T636
90T524 15T380 -13Q302 -13 237 13T125 88T52 202T26 346ZM129 346Q129 287 147 238T199 154T278 98T380 78Q437 78 483 98T563 153T614 238T632 346Q632 404 614 453T562 539T483 595T380 615Q323 615 277 595T198 539T147 454T129 346Z" />
<glyph unicode="&#x151;" glyph-name="ohungarumlaut" horiz-adv-x="600" d="M120 267Q120 225 133 191T171 131T228 91T300 77Q340 77 373 91T430 130T467 190T480 267Q480 308 467 343T429 403T372 443T300 458Q260 458 227 444T170 405T133 344T120 267ZM24
267Q24 328 45 378T103 466T190 523T300 544Q360 544 411 524T498 466T555 379T576 268Q576 208 555 157T497 70T409 12T299 -9Q239 -9 189 11T102 67T45 155T24 267ZM335 714L270 579H181L243 714H335ZM486 714L419 579H331L395 714H486Z" />
<glyph unicode="&#x152;" glyph-name="OE" horiz-adv-x="717" d="M378 601Q259 601 195 533T130 346Q130 228 195 160T378 91V601ZM679 692V601H476V401H674V311H476V91H682V0H382Q299 0 233 25T121 96T51 206T26 347Q26 423 50 486T121 596T232 667T381 692H679Z" />
<glyph unicode="&#x153;" glyph-name="oe" horiz-adv-x="1019" d="M120 267Q120 225 133 191T171 131T228 91T300 77Q340 77 373 91T430 130T467 190T480 267Q480 309 467 344T429 404T372 444T300 458Q260 458 227 444T170 405T133 344T120 267ZM738 460Q703
460 675 448T627 416T595 369T581 311H899Q897 345 885 373T851 420T801 449T738 460ZM749 -7Q674 -7 617 24T525 112Q490 55 431 23T299 -9Q239 -9 189 11T102 67T45 155T24 267Q24 328 45 378T103 466T190 523T300 544Q374 544 433 512T527 422Q559 478 614 510T739
542Q797 542 844 524T926 472T979 390T999 281Q999 274 999 262T997 238H579Q580 203 592 174T627 123T680 89T749 77Q812 77 850 107T912 185L986 146Q973 115 952 88T902 39T835 6T749 -7Z" />
<glyph unicode="&#x154;" glyph-name="Racute" horiz-adv-x="495" d="M342 855L264 729H171L246 855H342ZM436 504Q436 440 408 396T328 331L502 0H397L234 313H152V0H54V692H233Q330 692 383 645T436 504ZM152 606V396H228Q281 396 307 425T334 503Q334 551 308
578T228 606H152Z" />
<glyph unicode="&#x155;" glyph-name="racute" horiz-adv-x="281" d="M263 439H237Q188 439 166 412T144 336V0H49V535H144V483Q158 506 186 521T263 536V439ZM533 714L453 579H361L439 714H533Z" />
<glyph unicode="&#x156;" glyph-name="Rcommaaccent" horiz-adv-x="496" d="M436 504Q436 440 408 396T328 331L502 0H397L234 313H152V0H54V692H233Q330 692 383 645T436 504ZM152 606V396H228Q281 396 307 425T334 503Q334 551 308 578T228 606H152ZM243 -156Q222
-151 209 -136T196 -97Q196 -71 213 -54T259 -37Q288 -37 304 -55T321 -99Q321 -117 315 -132T302 -161L263 -242H204L243 -156Z" />
<glyph unicode="&#x157;" glyph-name="rcommaaccent" horiz-adv-x="281" d="M263 439H237Q188 439 166 412T144 336V0H49V535H144V483Q158 506 186 521T263 536V439ZM338 -156Q317 -151 304 -136T291 -97Q291 -71 308 -54T354 -37Q383 -37 399 -55T416 -99Q416
-117 410 -132T397 -161L358 -242H299L338 -156Z" />
<glyph unicode="&#x158;" glyph-name="Rcaron" horiz-adv-x="495" d="M183 729L76 855H168L233 785L298 855H389L281 729H183ZM436 504Q436 440 408 396T328 331L502 0H397L234 313H152V0H54V692H233Q330 692 383 645T436 504ZM152 606V396H228Q281 396 307 425T334
503Q334 551 308 578T228 606H152Z" />
<glyph unicode="&#x159;" glyph-name="rcaron" horiz-adv-x="281" d="M263 439H237Q188 439 166 412T144 336V0H49V535H144V483Q158 506 186 521T263 536V439ZM365 578L264 718H351L413 638L475 718H562L460 578H365Z" />
<glyph unicode="&#x15a;" glyph-name="Sacute" horiz-adv-x="482" d="M360 855L282 729H189L264 855H360ZM141 527Q141 492 158 470T208 431Q239 417 271 405T336 375Q392 348 423 304T454 191Q454 146 439 109T396 45T329 3T241 -12Q181 -12 140 6T73 54T38 124T28
207H123Q123 179 129 155T150 112T186 84T241 73Q290 73 322 100T354 182Q354 224 334 248T280 290Q246 308 212 320T142 352Q95 378 70 420T44 524Q44 562 57 595T96 652T158 691T239 705Q294 705 331 689T392 645T424 583T433 510H343Q341 558 316 589T239 621Q191
621 166 595T141 527Z" />
<glyph unicode="&#x15b;" glyph-name="sacute" horiz-adv-x="399" d="M124 401Q124 352 178 333Q199 325 220 320T263 307Q319 287 349 253T379 153Q379 114 365 84T326 34T268 4T198 -6Q147 -6 113 8T57 46T27 101T19 168H111Q111 148 115 131T130 100T157 79T200
71Q235 70 260 89T286 144Q286 177 270 194T224 222Q201 230 178 236T129 253Q76 276 54 311T32 395Q32 428 44 455T79 501T132 530T200 541Q284 541 324 497T366 379H278Q276 420 257 443T198 467Q164 467 144 450T124 401ZM587 714L507 579H415L493 714H587Z"
/>
<glyph unicode="&#x15c;" glyph-name="Scircumflex" horiz-adv-x="482" d="M288 855L396 729H304L239 797L175 729H82L190 855H288ZM141 527Q141 492 158 470T208 431Q239 417 271 405T336 375Q392 348 423 304T454 191Q454 146 439 109T396 45T329 3T241 -12Q181
-12 140 6T73 54T38 124T28 207H123Q123 179 129 155T150 112T186 84T241 73Q290 73 322 100T354 182Q354 224 334 248T280 290Q246 308 212 320T142 352Q95 378 70 420T44 524Q44 562 57 595T96 652T158 691T239 705Q294 705 331 689T392 645T424 583T433 510H343Q341
558 316 589T239 621Q191 621 166 595T141 527Z" />
<glyph unicode="&#x15d;" glyph-name="scircumflex" horiz-adv-x="399" d="M124 401Q124 352 178 333Q199 325 220 320T263 307Q319 287 349 253T379 153Q379 114 365 84T326 34T268 4T198 -6Q147 -6 113 8T57 46T27 101T19 168H111Q111 148 115 131T130 100T157
79T200 71Q235 70 260 89T286 144Q286 177 270 194T224 222Q201 230 178 236T129 253Q76 276 54 311T32 395Q32 428 44 455T79 501T132 530T200 541Q284 541 324 497T366 379H278Q276 420 257 443T198 467Q164 467 144 450T124 401ZM247 715L349 575H262L200 654L138
575H51L152 715H247Z" />
<glyph unicode="&#x15e;" glyph-name="Scedilla" horiz-adv-x="482" d="M171 -252V-191H192Q215 -191 231 -180T247 -143Q247 -118 233 -107T192 -95H171V-4Q131 5 104 25T59 74T35 137T28 207H123Q123 179 129 155T150 112T186 84T241 73Q290 73 322 100T354
182Q354 224 334 248T280 290Q246 308 212 320T142 352Q95 378 70 420T44 524Q44 562 57 595T96 652T158 691T239 705Q294 705 331 689T392 645T424 583T433 510H343Q341 558 316 589T239 621Q191 621 166 595T141 527Q141 492 158 470T208 431Q239 417 271 405T336
375Q392 348 423 304T454 191Q454 146 439 109T396 45T329 3T241 -12H231V-39Q277 -48 297 -76T317 -143Q317 -197 282 -224T191 -252H171Z" />
<glyph unicode="&#x15f;" glyph-name="scedilla" horiz-adv-x="399" d="M133 -252V-191H154Q177 -191 193 -180T209 -143Q209 -118 195 -107T154 -95H133V1Q101 10 79 26T43 65T23 113T18 168H110Q110 148 114 131T129 100T156 79T199 71Q234 70 259 89T285 144Q285
177 269 194T223 222Q200 230 177 236T128 253Q75 276 53 311T31 395Q31 428 43 455T78 501T131 530T199 541Q283 541 323 497T365 379H277Q275 420 256 443T197 467Q163 467 143 450T123 401Q123 352 177 333Q198 325 219 320T262 307Q318 287 348 253T378 153Q378
114 364 84T325 34T267 4T197 -6H193V-39Q239 -48 259 -76T279 -143Q279 -197 244 -224T153 -252H133Z" />
<glyph unicode="&#x160;" glyph-name="Scaron" horiz-adv-x="482" d="M191 729L84 855H176L241 785L306 855H397L289 729H191ZM141 527Q141 492 158 470T208 431Q239 417 271 405T336 375Q392 348 423 304T454 191Q454 146 439 109T396 45T329 3T241 -12Q181 -12
140 6T73 54T38 124T28 207H123Q123 179 129 155T150 112T186 84T241 73Q290 73 322 100T354 182Q354 224 334 248T280 290Q246 308 212 320T142 352Q95 378 70 420T44 524Q44 562 57 595T96 652T158 691T239 705Q294 705 331 689T392 645T424 583T433 510H343Q341
558 316 589T239 621Q191 621 166 595T141 527Z" />
<glyph unicode="&#x161;" glyph-name="scaron" horiz-adv-x="399" d="M124 401Q124 352 178 333Q199 325 220 320T263 307Q319 287 349 253T379 153Q379 114 365 84T326 34T268 4T198 -6Q147 -6 113 8T57 46T27 101T19 168H111Q111 148 115 131T130 100T157 79T200
71Q235 70 260 89T286 144Q286 177 270 194T224 222Q201 230 178 236T129 253Q76 276 54 311T32 395Q32 428 44 455T79 501T132 530T200 541Q284 541 324 497T366 379H278Q276 420 257 443T198 467Q164 467 144 450T124 401ZM152 578L51 718H138L200 638L262 718H349L247
578H152Z" />
<glyph unicode="&#x162;" glyph-name="Tcommaaccent" horiz-adv-x="416" d="M257 601V0H159V601H17V692H399V601H257ZM449 -156Q428 -151 415 -136T402 -97Q402 -71 419 -54T465 -37Q494 -37 510 -55T527 -99Q527 -117 521 -132T508 -161L469 -242H410L449 -156Z" />
<glyph unicode="&#x163;" glyph-name="tcommaaccent" horiz-adv-x="277" d="M160 535H259V454H160V153Q160 118 171 100T220 82H258V0Q252 0 236 -2T196 -5Q122 -5 94 30T65 129V454H11V535H65V617H160V535ZM403 -156Q382 -151 369 -136T356 -97Q356 -71 373 -54T419
-37Q448 -37 464 -55T481 -99Q481 -117 475 -132T462 -161L423 -242H364L403 -156Z" />
<glyph unicode="&#x164;" glyph-name="Tcaron" horiz-adv-x="416" d="M157 729L50 855H142L207 785L272 855H363L255 729H157ZM257 601V0H159V601H17V692H399V601H257Z" />
<glyph unicode="&#x165;" glyph-name="tcaron" horiz-adv-x="277" d="M160 535H259V454H160V153Q160 118 171 100T220 82H258V0Q252 0 236 -2T196 -5Q122 -5 94 30T65 129V454H11V535H65V617H160V535ZM554 731L538 577H460L474 731H554Z" />
<glyph unicode="&#x166;" glyph-name="Tbar" horiz-adv-x="416" d="M257 601V430H357V354H257V0H159V354H60V430H159V601H17V692H399V601H257Z" />
<glyph unicode="&#x167;" glyph-name="tbar" horiz-adv-x="277" d="M160 535H259V454H160V343H259V270H160V153Q160 118 171 100T220 82H258V0Q252 0 236 -2T196 -5Q122 -5 94 30T65 129V270H13V343H65V454H11V535H65V617H160V535Z" />
<glyph unicode="&#x168;" glyph-name="Utilde" horiz-adv-x="624" d="M312 -13Q245 -13 196 6T115 62T66 148T50 261V692H148V261Q148 178 187 128T313 78Q394 78 435 129T477 262V692H574V261Q574 201 557 151T506 65T424 8T312 -13ZM373 739Q353 739 339 745T311
760T286 775T260 782Q244 782 237 771T229 740H159Q158 789 183 822T256 856Q276 856 291 850T318 835T342 820T368 813Q398 813 398 856H468Q469 803 444 771T373 739Z" />
<glyph unicode="&#x169;" glyph-name="utilde" horiz-adv-x="475" d="M141 193Q141 139 163 110T234 80Q282 80 306 111T331 196V535H427V0H332V49Q320 30 291 12T212 -6Q167 -6 136 8T84 48T55 108T46 182V535H141V193ZM298 582Q278 582 264 588T236 603T211
618T185 625Q169 625 162 614T154 583H84Q83 632 108 665T181 699Q201 699 216 693T243 678T267 663T293 656Q323 656 323 699H393Q394 646 369 614T298 582Z" />
<glyph unicode="&#x16a;" glyph-name="Umacron" horiz-adv-x="624" d="M312 -13Q245 -13 196 6T115 62T66 148T50 261V692H148V261Q148 178 187 128T313 78Q394 78 435 129T477 262V692H574V261Q574 201 557 151T506 65T424 8T312 -13ZM195 827H425V754H195V827Z" />
<glyph unicode="&#x16b;" glyph-name="umacron" horiz-adv-x="475" d="M141 193Q141 139 163 110T234 80Q282 80 306 111T331 196V535H427V0H332V49Q320 30 291 12T212 -6Q167 -6 136 8T84 48T55 108T46 182V535H141V193ZM122 670H352V597H122V670Z" />
<glyph unicode="&#x16c;" glyph-name="Ubreve" horiz-adv-x="624" d="M312 730Q273 730 247 742T204 774T181 815T173 857H249Q249 848 252 838T263 820T282 806T312 800Q330 800 342 805T361 819T371 838T375 857H449Q449 837 442 815T418 774T376 743T312 730ZM312
-13Q245 -13 196 6T115 62T66 148T50 261V692H148V261Q148 178 187 128T313 78Q394 78 435 129T477 262V692H574V261Q574 201 557 151T506 65T424 8T312 -13Z" />
<glyph unicode="&#x16d;" glyph-name="ubreve" horiz-adv-x="475" d="M141 193Q141 139 163 110T234 80Q282 80 306 111T331 196V535H427V0H332V49Q320 30 291 12T212 -6Q167 -6 136 8T84 48T55 108T46 182V535H141V193ZM236 571Q197 571 171 584T128 617T105
660T98 704H172Q172 693 175 682T186 661T205 645T236 639Q254 639 266 645T285 661T296 682T300 704H372Q372 683 365 660T342 617T300 584T236 571Z" />
<glyph unicode="&#x16e;" glyph-name="Uring" horiz-adv-x="624" d="M208 817Q208 862 236 890T310 919Q359 919 387 891T415 819Q415 775 387 747T311 718Q265 718 237 746T208 817ZM264 818Q264 797 276 784T311 770Q334 770 346 783T359 819Q359 840 347 853T311
867Q289 867 277 854T264 818ZM312 -13Q245 -13 196 6T115 62T66 148T50 261V692H148V261Q148 178 187 128T313 78Q394 78 435 129T477 262V692H574V261Q574 201 557 151T506 65T424 8T312 -13Z" />
<glyph unicode="&#x16f;" glyph-name="uring" horiz-adv-x="475" d="M141 193Q141 139 163 110T234 80Q282 80 306 111T331 196V535H427V0H332V49Q320 30 291 12T212 -6Q167 -6 136 8T84 48T55 108T46 182V535H141V193ZM134 662Q134 706 162 734T236 763Q285 763
313 735T341 664Q341 619 313 591T237 562Q191 562 163 590T134 662ZM188 662Q188 641 201 627T237 613Q261 613 274 627T287 664Q287 684 274 698T237 713Q214 713 201 699T188 662Z" />
<glyph unicode="&#x170;" glyph-name="Uhungarumlaut" horiz-adv-x="624" d="M336 855L273 729H183L244 855H336ZM487 855L423 729H334L396 855H487ZM312 -13Q245 -13 196 6T115 62T66 148T50 261V692H148V261Q148 178 187 128T313 78Q394 78 435 129T477 262V692H574V261Q574
201 557 151T506 65T424 8T312 -13Z" />
<glyph unicode="&#x171;" glyph-name="uhungarumlaut" horiz-adv-x="475" d="M141 193Q141 139 163 110T234 80Q282 80 306 111T331 196V535H427V0H332V49Q320 30 291 12T212 -6Q167 -6 136 8T84 48T55 108T46 182V535H141V193ZM266 714L201 579H112L174 714H266ZM417
714L350 579H262L326 714H417Z" />
<glyph unicode="&#x172;" glyph-name="Uogonek" horiz-adv-x="624" d="M405 1Q370 -10 358 -27T346 -62Q346 -83 362 -94T403 -106V-175Q329 -178 293 -151T257 -82Q257 -43 291 -12Q229 -9 184 12T109 68T65 153T50 261V692H148V261Q148 220 157 187T187 129T238
92T312 78Q353 78 384 91T435 129T466 187T477 261V692H575V261Q575 164 532 96T405 1Z" />
<glyph unicode="&#x173;" glyph-name="uogonek" horiz-adv-x="475" d="M141 193Q141 139 163 110T234 80Q282 80 306 111T331 196V535H427V-3Q395 -13 383 -28T370 -62Q370 -85 386 -95T427 -106V-175Q353 -178 317 -151T281 -80Q281 -56 293 -34T332 5V49Q320
30 291 12T212 -6Q167 -6 136 8T84 48T55 108T46 182V535H141V193Z" />
<glyph unicode="&#x174;" glyph-name="Wcircumflex" horiz-adv-x="981" d="M538 855L646 729H554L489 797L425 729H332L440 855H538ZM492 547L322 0H215L1 692H107L273 134L441 692H547L715 134L880 692H980L769 0H661L492 547Z" />
<glyph unicode="&#x175;" glyph-name="wcircumflex" horiz-adv-x="830" d="M601 120L732 535H830L656 0H551L417 402L282 0H177L0 535H105L235 120L367 535H470L601 120ZM464 715L566 575H479L417 654L355 575H268L369 715H464Z" />
<glyph unicode="&#x176;" glyph-name="Ycircumflex" horiz-adv-x="481" d="M291 855L399 729H307L242 797L178 729H85L193 855H291ZM-4 692H106L243 451L380 692H485L289 356V0H191V355L-4 692Z" />
<glyph unicode="&#x177;" glyph-name="ycircumflex" horiz-adv-x="512" d="M143 -175L214 10L-2 535H103L263 137L415 535H514L236 -175H143ZM308 715L410 575H323L261 654L199 575H112L213 715H308Z" />
<glyph unicode="&#x178;" glyph-name="Ydieresis" horiz-adv-x="481" d="M148 736Q123 736 106 752T89 795Q89 820 106 837T148 854Q174 854 191 837T209 795Q209 769 191 753T148 736ZM335 736Q310 736 293 752T276 795Q276 820 293 837T335 854Q361 854 378
837T396 795Q396 769 378 753T335 736ZM-4 692H106L243 451L380 692H485L289 356V0H191V355L-4 692Z" />
<glyph unicode="&#x179;" glyph-name="Zacute" horiz-adv-x="588" d="M405 855L327 729H234L309 855H405ZM28 0V73L424 602H34V692H559V619L159 90H560V0H28Z" />
<glyph unicode="&#x17a;" glyph-name="zacute" horiz-adv-x="441" d="M133 80H418V0H23V73L302 455H29V535H418V462L133 80ZM598 714L518 579H426L504 714H598Z" />
<glyph unicode="&#x17b;" glyph-name="Zdotaccent" horiz-adv-x="588" d="M293 741Q267 741 249 758T231 802Q231 828 248 845T292 863Q318 863 336 846T354 802Q354 776 337 759T293 741ZM28 0V73L424 602H34V692H559V619L159 90H560V0H28Z" />
<glyph unicode="&#x17c;" glyph-name="zdotaccent" horiz-adv-x="441" d="M133 80H418V0H23V73L302 455H29V535H418V462L133 80ZM224 589Q198 589 180 606T162 650Q162 676 179 693T223 711Q249 711 267 694T285 650Q285 624 268 607T224 589Z" />
<glyph unicode="&#x17d;" glyph-name="Zcaron" horiz-adv-x="588" d="M244 729L137 855H229L294 785L359 855H450L342 729H244ZM28 0V73L424 602H34V692H559V619L159 90H560V0H28Z" />
<glyph unicode="&#x17e;" glyph-name="zcaron" horiz-adv-x="441" d="M133 80H418V0H23V73L302 455H29V535H418V462L133 80ZM176 578L75 718H162L224 638L286 718H373L271 578H176Z" />
<glyph unicode="&#x192;" glyph-name="florin" horiz-adv-x="336" d="M198 418H281V337H183L94 -175H0L90 337H38V418H104L126 542Q140 623 177 658T287 693Q289 693 294 693T306 693T316 692T323 692V612H293Q254 612 240 592T220 539L198 418Z" />
<glyph unicode="&#x1fa;" glyph-name="Aringacute" horiz-adv-x="631" d="M433 1067L355 941H262L337 1067H433ZM205 817Q205 862 233 890T307 919Q356 919 384 891T412 819Q412 775 384 747T308 718Q262 718 234 746T205 817ZM261 818Q261 797 273 784T308 770Q331
770 343 783T356 819Q356 840 344 853T308 867Q286 867 274 854T261 818ZM441 228H181L95 0H-2L258 692H361L633 0H530L441 228ZM212 312H408L309 567L212 312Z" />
<glyph unicode="&#x1fb;" glyph-name="aringacute" horiz-adv-x="459" d="M360 915L282 789H189L264 915H360ZM26 171Q26 209 39 241T76 297T133 334T207 347Q248 347 276 336T318 311V356Q318 408 295 436T223 464Q174 464 155 438T134 379H45Q45 414 56 444T90
495T145 529T224 541Q275 541 310 527T368 488T401 426T412 345V0H328V42Q309 20 280 6T207 -8Q169 -8 136 4T79 40T40 96T26 171ZM118 171Q118 128 145 99T218 70Q262 70 291 99T320 171Q320 215 291 243T217 271Q172 271 145 243T118 171ZM129 662Q129 706 157
734T231 763Q280 763 308 735T336 664Q336 619 308 591T232 562Q186 562 158 590T129 662ZM183 662Q183 641 196 627T232 613Q256 613 269 627T282 664Q282 684 269 698T232 713Q209 713 196 699T183 662Z" />
<glyph unicode="&#x1fc;" glyph-name="AEacute" horiz-adv-x="772" d="M653 855L575 729H482L557 855H653ZM432 0V200H216L104 0H-4L389 692H734V601H530V401H728V311H530V91H736V0H432ZM432 285V585L263 285H432Z" />
<glyph unicode="&#x1fd;" glyph-name="aeacute" horiz-adv-x="849" d="M580 -7Q512 -7 459 18T371 89Q364 74 352 57T322 25T277 1T214 -9Q173 -9 139 3T80 39T40 94T26 168Q26 206 39 238T75 293T132 330T207 343Q245 343 273 333T316 308V356Q316 407 294 435T224
464Q200 464 183 457T156 438T142 411T137 379H48Q48 413 59 443T92 494T147 528T225 541Q286 541 324 517T379 450Q408 491 456 516T570 542Q628 542 676 524T757 472T810 390T830 281Q830 274 830 262T828 238H410Q411 203 423 174T458 123T511 89T580 77Q643
77 682 107T744 185L817 146Q804 115 783 88T733 39T666 6T580 -7ZM569 460Q534 460 506 448T458 416T426 369T412 311H730Q727 381 683 420T569 460ZM117 170Q117 126 145 98T218 69Q263 69 292 97T321 170Q321 215 292 243T217 272Q171 272 144 243T117 170ZM522
714L442 579H350L428 714H522Z" />
<glyph unicode="&#x1fe;" glyph-name="Oslashacute" horiz-adv-x="761" d="M503 855L425 729H332L407 855H503ZM26 346Q26 424 52 489T126 603T237 678T378 705Q437 705 489 690T581 645L634 706L699 650L647 589Q686 544 710 483T734 347Q734 270 708 205T635
91T522 16T379 -12Q319 -12 268 4T177 48L123 -15L59 40L113 102Q71 149 49 211T26 346ZM633 346Q633 396 620 438T582 516L238 118Q268 98 303 88T380 77Q437 77 483 97T563 152T614 237T633 346ZM128 346Q128 296 141 254T178 177L521 575Q491 595 456 605T379
616Q322 616 276 596T197 540T146 455T128 346Z" />
<glyph unicode="&#x1ff;" glyph-name="oslashacute" horiz-adv-x="600" d="M426 714L346 579H254L332 714H426ZM24 267Q24 328 45 378T103 466T190 523T300 544Q345 544 383 532T452 500L493 548L549 500L509 453Q541 417 558 370T576 268Q576 208 555 157T497
70T409 12T299 -9Q254 -9 216 2T148 33L107 -14L52 32L92 79Q60 114 42 162T24 267ZM118 267Q118 198 152 149L396 434Q352 461 300 461Q259 461 226 447T168 407T131 345T118 267ZM482 267Q482 333 449 383L204 99Q244 74 300 74Q340 74 373 88T431 128T468 189T482
267Z" />
<glyph unicode="&#x218;" glyph-name="Scommaaccent" horiz-adv-x="482" d="M141 527Q141 492 158 470T208 431Q239 417 271 405T336 375Q392 348 423 304T454 191Q454 146 439 109T396 45T329 3T241 -12Q181 -12 140 6T73 54T38 124T28 207H123Q123 179 129 155T150
112T186 84T241 73Q290 73 322 100T354 182Q354 224 334 248T280 290Q246 308 212 320T142 352Q95 378 70 420T44 524Q44 562 57 595T96 652T158 691T239 705Q294 705 331 689T392 645T424 583T433 510H343Q341 558 316 589T239 621Q191 621 166 595T141 527ZM224
-156Q203 -151 190 -136T177 -97Q177 -71 194 -54T240 -37Q269 -37 285 -55T302 -99Q302 -117 296 -132T283 -161L244 -242H185L224 -156Z" />
<glyph unicode="&#x219;" glyph-name="scommaaccent" horiz-adv-x="398" d="M124 401Q124 352 178 333Q199 325 220 320T263 307Q319 287 349 253T379 153Q379 114 365 84T326 34T268 4T198 -6Q147 -6 113 8T57 46T27 101T19 168H111Q111 148 115 131T130 100T157
79T200 71Q235 70 260 89T286 144Q286 177 270 194T224 222Q201 230 178 236T129 253Q76 276 54 311T32 395Q32 428 44 455T79 501T132 530T200 541Q284 541 324 497T366 379H278Q276 420 257 443T198 467Q164 467 144 450T124 401ZM448 -156Q427 -151 414 -136T401
-97Q401 -71 418 -54T464 -37Q493 -37 509 -55T526 -99Q526 -117 520 -132T507 -161L468 -242H409L448 -156Z" />
<glyph unicode="&#x21a;" glyph-name="uni021A" horiz-adv-x="416" d="M257 601V0H159V601H17V692H399V601H257ZM449 -156Q428 -151 415 -136T402 -97Q402 -71 419 -54T465 -37Q494 -37 510 -55T527 -99Q527 -117 521 -132T508 -161L469 -242H410L449 -156Z" />
<glyph unicode="&#x21b;" glyph-name="uni021B" horiz-adv-x="277" d="M160 535H259V454H160V153Q160 118 171 100T220 82H258V0Q252 0 236 -2T196 -5Q122 -5 94 30T65 129V454H11V535H65V617H160V535ZM403 -156Q382 -151 369 -136T356 -97Q356 -71 373 -54T419
-37Q448 -37 464 -55T481 -99Q481 -117 475 -132T462 -161L423 -242H364L403 -156Z" />
<glyph unicode="&#x237;" glyph-name="uni0237" horiz-adv-x="193" d="M144 -11Q144 -48 137 -78T111 -130T64 -163T-9 -175H-40V-93H-18Q4 -93 17 -87T37 -69T46 -44T49 -12V535H144V-11Z" />
<glyph unicode="&#x2c6;" glyph-name="circumflex" horiz-adv-x="400" d="M247 715L349 575H262L200 654L138 575H51L152 715H247Z" />
<glyph unicode="&#x2c7;" glyph-name="caron" horiz-adv-x="400" d="M152 578L51 718H138L200 638L262 718H349L247 578H152Z" />
<glyph unicode="&#x2d8;" glyph-name="breve" horiz-adv-x="400" d="M202 571Q163 571 137 584T94 617T71 660T64 704H138Q138 693 141 682T152 661T171 645T202 639Q220 639 232 645T251 661T262 682T266 704H338Q338 683 331 660T308 617T266 584T202 571Z" />
<glyph unicode="&#x2d9;" glyph-name="dotaccent" horiz-adv-x="400" d="M202 589Q176 589 158 606T140 650Q140 676 157 693T201 711Q227 711 245 694T263 650Q263 624 246 607T202 589Z" />
<glyph unicode="&#x2da;" glyph-name="ring" horiz-adv-x="400" d="M96 662Q96 706 124 734T198 763Q247 763 275 735T303 664Q303 619 275 591T199 562Q153 562 125 590T96 662ZM150 662Q150 641 163 627T199 613Q223 613 236 627T249 664Q249 684 236 698T199
713Q176 713 163 699T150 662Z" />
<glyph unicode="&#x2db;" glyph-name="ogonek" horiz-adv-x="400" d="M251 0Q222 -13 210 -28T198 -62Q198 -85 214 -95T255 -106V-175Q181 -178 146 -151T110 -80Q110 -57 120 -37T152 0H251Z" />
<glyph unicode="&#x2dc;" glyph-name="tilde" horiz-adv-x="400" d="M258 582Q238 582 224 588T196 603T171 618T145 625Q129 625 122 614T114 583H44Q43 632 68 665T141 699Q161 699 176 693T203 678T227 663T253 656Q283 656 283 699H353Q354 646 329 614T258 582Z" />
<glyph unicode="&#x2dd;" glyph-name="hungarumlaut" horiz-adv-x="400" d="M209 714L144 579H55L117 714H209ZM360 714L293 579H205L269 714H360Z" />
</font>
</defs>
</svg>
