<svg xmlns="http://www.w3.org/2000/svg" viewBox="0 0 18 7"><style>.wavey{fill:#C8EAEF;}</style><path d="M13.499 3c-1.315 0-1.989-0.598-2.583-1.126C10.367 1.4 9.9 1 9 1C8.063 1 7.6 1.4 7.1 1.9 C6.487 2.4 5.8 3 4.5 3C3.185 3 2.5 2.4 1.9 1.874C1.368 1.4 0.9 1 0 1V0c1.315 0 2 0.6 2.6 1.1 C3.131 1.6 3.6 2 4.5 2c0.934 0 1.368-0.385 1.917-0.874C7.01 0.6 7.7 0 9 0c1.315 0 2 0.6 2.6 1.1 C12.129 1.6 12.6 2 13.5 2c0.935 0 1.369-0.385 1.918-0.874C16.011 0.6 16.7 0 18 0v1c-0.935 0-1.369 0.385-1.918 0.9 C15.488 2.4 14.8 3 13.5 3z M16.082 5.874C16.631 5.4 17.1 5 18 5V4c-1.315 0-1.989 0.598-2.583 1.1 C14.868 5.6 14.4 6 13.5 6c-0.936 0-1.37-0.386-1.919-0.874C10.986 4.6 10.3 4 9 4C7.683 4 7 4.6 6.4 5.1 C5.867 5.6 5.4 6 4.5 6C3.565 6 3.1 5.6 2.6 5.126C1.988 4.6 1.3 4 0 4v1c0.935 0 1.4 0.4 1.9 0.9 C2.511 6.4 3.2 7 4.5 7c1.315 0 1.988-0.598 2.581-1.126C7.63 5.4 8.1 5 9 5c0.935 0 1.4 0.4 1.9 0.9 C11.51 6.4 12.2 7 13.5 7S15.488 6.4 16.1 5.874z" class="wavey"/></svg>
